<?xml version="1.0" standalone="no"?><!DOCTYPE svg PUBLIC "-//W3C//DTD SVG 1.1//EN" "http://www.w3.org/Graphics/SVG/1.1/DTD/svg11.dtd"><svg t="1733730894729" class="icon" viewBox="0 0 1024 1024" version="1.1" xmlns="http://www.w3.org/2000/svg" p-id="6587" xmlns:xlink="http://www.w3.org/1999/xlink" width="200" height="200"><path d="M914.170358 189.387674L577.268711 15.806207a143.721758 143.721758 0 0 0-130.974817 0L109.392247 190.439296A135.27691 135.27691 0 0 0 33.356745 314.72197v393.466197a143.562421 143.562421 0 0 0 76.035502 125.206826l339.03676 174.63309a137.029614 137.029614 0 0 0 65.487408 15.933676 143.052544 143.052544 0 0 0 65.487409-15.933676l334.798402-173.581467a140.758094 140.758094 0 0 0 76.035502-125.206827V313.63848a139.929543 139.929543 0 0 0-76.035502-124.282674z m-434.065203-111.535733a71.382869 71.382869 0 0 1 31.676148-8.412981 63.989643 63.989643 0 0 1 31.676148 7.361359l336.901647 173.581467a95.825128 95.825128 0 0 1 13.734828 8.412981l-383.364246 197.800655L127.365434 261.981502a30.305852 30.305852 0 0 1 13.734829-8.412981zM143.203508 770.106432a69.279624 69.279624 0 0 1-39.069374-63.129225V327.182104l141.522911 72.593829v158.85875a34.321138 34.321138 0 0 0 19.120411 31.548679l25.493882 12.746941a10.070083 10.070083 0 0 0 7.393226 2.103245 17.144635 17.144635 0 0 0 17.941319-17.909452V435.626704l159.336761 81.006809v426.098366z m737.187457 0l-333.746779 173.581467v-427.022519l372.84802-189.355806v379.795103a69.279624 69.279624 0 0 1-39.069374 63.129224z" p-id="6588"></path></svg>