<?xml version="1.0" standalone="no"?><!DOCTYPE svg PUBLIC "-//W3C//DTD SVG 1.1//EN" "http://www.w3.org/Graphics/SVG/1.1/DTD/svg11.dtd"><svg t="1733905609258" class="icon" viewBox="0 0 1024 1024" version="1.1" xmlns="http://www.w3.org/2000/svg" p-id="37657" xmlns:xlink="http://www.w3.org/1999/xlink" width="200" height="200"><path d="M857.50101333 819.12035555c-50.31822222-105.48337778-412.15544889-97.57127111-274.28408888-258.16974222 45.13678222-53.04888889 92.72775111-124.71182222 92.7277511-201.50044444 0-138.75768889-92.34090667-251.54218667-205.91160888-251.54218667-113.46147555 0-206.02424889 112.78449778-206.02424889 251.54218667 0 76.78862222 29.09070222 128.27648 87.21066667 200.16355556 95.85208889 141.48380445-217.55562667 151.84782222-264.92245334 252.76757333-14.04245333 29.97816889-16.49777778 53.21841778-16.27591111 80.01877333 0 3.45656889-0.32995555 7.02008889 1.39605333 9.86112 1.72600889 2.78983111 4.40206222 4.51470222 7.30225778 4.51470222h781.51338667c2.78755555 0 5.51594667-1.72600889 7.18848-4.51470222 1.72600889-2.84103111 1.39377778-6.35107555 1.39377777-9.86112 0.55978667-29.98044445-3.45656889-56.83996445-11.31406222-73.27857778z" fill="#ffffff" p-id="37658"></path><path d="M995.77173333 488.58225778h-103.58784v-103.57532445c0-14.32803555-11.63264-25.91061333-25.89582222-25.91061333-14.30186667 0-25.89582222 11.58257778-25.89582222 25.91061333v103.57532445H736.80213333c-14.31324445 0-25.91061333 11.58257778-25.91061333 25.92199111 0 14.26432 11.59623111 25.89923555 25.91061333 25.89923556h103.59011556v103.58784c0 14.28821333 11.59395555 25.87192889 25.89582222 25.87192888 14.26318222 0 25.89582222-11.58257778 25.89582222-25.87192888v-103.58784h103.58897778c14.31324445 0 25.89582222-11.63377778 25.89582222-25.89923556 0.00113778-14.33827555-11.58257778-25.92199111-25.89582222-25.92199111z" fill="#ffffff" p-id="37659"></path></svg>