<?xml version="1.0" standalone="no"?><!DOCTYPE svg PUBLIC "-//W3C//DTD SVG 1.1//EN" "http://www.w3.org/Graphics/SVG/1.1/DTD/svg11.dtd"><svg t="1734050660139" class="icon" viewBox="0 0 1024 1024" version="1.1" xmlns="http://www.w3.org/2000/svg" p-id="51087" xmlns:xlink="http://www.w3.org/1999/xlink" width="200" height="200"><path d="M729.6 512c0 131.2-51.2 256-144 352l22.4 22.4 22.4 22.4c105.6-105.6 163.2-246.4 163.2-396.8S736 224 630.4 118.4l-3.2-3.2-22.4 22.4-22.4 22.4 3.2 3.2c92.8 92.8 144 217.6 144 348.8z" fill="#707070" p-id="51088"></path><path d="M483.2 761.6s-3.2 0 0 0l22.4 22.4 22.4 22.4c163.2-163.2 163.2-425.6 0-585.6l-3.2-3.2-22.4 22.4-22.4 22.4 3.2 3.2c134.4 137.6 134.4 358.4 0 496z" fill="#707070" p-id="51089"></path><path d="M380.8 659.2c0 3.2 0 3.2 0 0l22.4 22.4 22.4 22.4c105.6-105.6 105.6-278.4 0-387.2l-3.2-3.2-22.4 22.4-22.4 22.4 3.2 3.2c83.2 86.4 83.2 217.6 0 297.6zM316.8 595.2c44.8-44.8 44.8-118.4 0-163.2l-3.2-3.2L230.4 512l86.4 83.2c-3.2 0-3.2 0 0 0z" fill="#707070" p-id="51090"></path></svg>