<?xml version="1.0" standalone="no"?><!DOCTYPE svg PUBLIC "-//W3C//DTD SVG 1.1//EN" "http://www.w3.org/Graphics/SVG/1.1/DTD/svg11.dtd"><svg t="1733905581035" class="icon" viewBox="0 0 1024 1024" version="1.1" xmlns="http://www.w3.org/2000/svg" p-id="36591" xmlns:xlink="http://www.w3.org/1999/xlink" width="200" height="200"><path d="M726.7 587.8c11 0 20.1 8.9 20.1 20 0 10.7-9.1 19.4-20.1 19.4h-68.4v68.2c0.1 5.2-2 10.2-5.6 13.9-3.6 3.7-8.6 5.8-13.8 5.9-5.3 0-10.4-2-14.1-5.7-3.8-3.7-5.9-8.8-5.9-14.1v-68.2h-68.2c-5.2 0.1-10.2-1.9-13.9-5.5-3.7-3.6-5.8-8.6-5.7-13.8 0-11.2 8.4-20 19.6-20h68.2v-68.2c0-11 8.9-19.8 20.1-19.8 10.7 0 19.4 8.9 19.4 19.8v68.2h68.3z" fill="#ffffff" p-id="36592"></path><path d="M905 885.8h-2.7L714 866.1c-24.7 5.1-49.9 7.7-75.2 7.6-177.9 0-322.5-127-322.5-283.2S461 307.3 638.8 307.3s322.5 127 322.5 283.2c-0.5 62.9-23.7 123.6-65.2 170.8l33.3 89.4c3 8 1.9 16.9-3 23.9-4.8 7.1-12.8 11.3-21.4 11.2z m-192.4-72.1h2.7l150.9 15.6-24.5-64.7c-3.5-9.4-1.3-20 5.7-27.2 39-39 61.2-91.7 62-146.9 0-127.5-121.4-231.2-270.5-231.2-149.2 0-270.5 103.7-270.5 231.2 0 127.5 121.4 231.2 270.5 231.2 22.9 0 45.8-2.5 68.1-7.4 1.8-0.4 3.7-0.6 5.6-0.6z m0 0" fill="#ffffff" p-id="36593"></path><path d="M114.7 663.8c-8.5 0-16.5-4.2-21.4-11.2-4.9-7-6-15.9-3-23.9l29.6-79.5c-37.4-43-58.2-97.9-58.6-154.9 0-142.6 132-258.6 294.2-258.6 131.7 0 248.2 78 283.3 189.2 2.4 7.5 1.2 15.7-3.2 22.3-4.4 6.6-11.5 10.8-19.4 11.5C470 371.3 359.6 475.9 359.6 601.9c0 7.2 0.4 14.4 1.2 21.6 0.8 7.6-1.8 15.2-7.1 20.7s-12.8 8.4-20.4 7.9c-15.4-1-30.7-3.1-45.8-6.2l-170 17.8-2.8 0.1z m240.8-476.1c-133.5 0-242.2 92.7-242.2 206.6 0.6 49.2 20.4 96.3 55.2 131.1 7 7.2 9.2 17.8 5.7 27.2l-20.5 55L286 593.5c2.8-0.3 5.6-0.1 8.4 0.5 4.3 1 8.7 1.8 13.2 2.6 2.7-140.5 115.5-258 269.6-285.4-38-74-124.7-123.5-221.7-123.5z m0 0" fill="#ffffff" p-id="36594"></path></svg>