<?xml version="1.0" standalone="no"?><!DOCTYPE svg PUBLIC "-//W3C//DTD SVG 1.1//EN" "http://www.w3.org/Graphics/SVG/1.1/DTD/svg11.dtd"><svg t="1733730807038" class="icon" viewBox="0 0 1066 1024" version="1.1" xmlns="http://www.w3.org/2000/svg" p-id="4777" xmlns:xlink="http://www.w3.org/1999/xlink" width="208.203125" height="200"><path d="M554.666667 341.333333a42.666667 42.666667 0 0 1 42.666666 42.666667 42.666667 42.666667 0 0 0 85.333334 0 128 128 0 1 0-214.101334 94.72c0.426667 0.426667 6.912 7.253333 8.277334 9.216a42.154667 42.154667 0 0 1 0 47.744 42.666667 42.666667 0 0 0 70.314666 48.213333c29.994667-43.52 29.866667-101.12-0.213333-144.554666a303.957333 303.957333 0 0 0-20.906667-23.765334A42.666667 42.666667 0 0 1 554.666667 341.333333h-0.042667z m0-256a298.666667 298.666667 0 0 0-288.512 375.978667 42.666667 42.666667 0 0 0 82.432-22.101333A213.333333 213.333333 0 1 1 768 384a218.197333 218.197333 0 0 1-30.08 109.525333L585.813333 810.666667A85.546667 85.546667 0 0 1 512 853.333333a86.485333 86.485333 0 0 1-85.333333-85.333333c0-14.933333 3.968-29.653333 11.477333-42.624a42.666667 42.666667 0 0 0-73.941333-42.752 170.624 170.624 0 1 0 297.088 167.850667l152.021333-317.141334A298.666667 298.666667 0 0 0 554.666667 85.333333z" fill="#42526E" p-id="4778"></path></svg>