<?xml version="1.0" standalone="no"?><!DOCTYPE svg PUBLIC "-//W3C//DTD SVG 1.1//EN" "http://www.w3.org/Graphics/SVG/1.1/DTD/svg11.dtd"><svg t="1733731047847" class="icon" viewBox="0 0 1024 1024" version="1.1" xmlns="http://www.w3.org/2000/svg" p-id="14658" xmlns:xlink="http://www.w3.org/1999/xlink" width="200" height="200"><path d="M685.966222 307.2c-89.258667 57.287111-138.808889 124.017778-148.764444 200.078222-15.416889 118.499556 90.567111 176.526222 144.213333 124.416a83.000889 83.000889 0 0 0-17.351111-136.362666 222.72 222.72 0 0 0-34.076444-12.174223c-17.806222-5.12-27.136-7.850667-24.462223-23.779555 4.152889-24.120889 59.505778-91.136 108.088889-122.311111a8.874667 8.874667 0 0 0 1.365334-12.117334l-12.060445-15.587555c-5.176889-6.826667-10.24-6.542222-16.952889-2.218667zM451.015111 307.2c-89.315556 57.287111-138.808889 124.017778-148.764444 200.078222C286.833778 625.777778 392.760889 683.804444 446.464 631.694222a83.000889 83.000889 0 0 0-17.351111-136.362666c-13.312-6.144-24.860444-9.500444-34.133333-12.174223-17.749333-5.12-27.136-7.850667-24.405334-23.779555 4.152889-24.120889 59.448889-91.136 108.088889-122.311111a8.874667 8.874667 0 0 0 1.308445-12.117334l-12.003556-15.587555c-5.233778-6.826667-10.24-6.542222-16.952889-2.218667z" fill="#1D2129" p-id="14659"></path><path d="M199.111111 99.555556A156.444444 156.444444 0 0 0 42.666667 256v455.111111a156.444444 156.444444 0 0 0 142.222222 155.818667v48.867555a71.111111 71.111111 0 0 0 108.771555 60.302223l173.681778-108.544H824.888889a156.444444 156.444444 0 0 0 156.444444-156.444445v-455.111111a156.444444 156.444444 0 0 0-156.444444-156.444444h-625.777778zM128 256c0-39.253333 31.857778-71.111111 71.111111-71.111111h625.777778c39.253333 0 71.111111 31.857778 71.111111 71.111111v455.111111c0 39.253333-31.857778 71.111111-71.111111 71.111111H455.111111a42.666667 42.666667 0 0 0-22.584889 6.485334L270.222222 890.140444V824.888889a42.666667 42.666667 0 0 0-42.666666-42.666667h-28.444445c-39.253333 0-71.111111-31.857778-71.111111-71.111111v-455.111111z" fill="#1D2129" p-id="14660"></path></svg>