<?xml version="1.0" standalone="no"?><!DOCTYPE svg PUBLIC "-//W3C//DTD SVG 1.1//EN" "http://www.w3.org/Graphics/SVG/1.1/DTD/svg11.dtd"><svg t="1733730936124" class="icon" viewBox="0 0 1024 1024" version="1.1" xmlns="http://www.w3.org/2000/svg" p-id="7647" xmlns:xlink="http://www.w3.org/1999/xlink" width="200" height="200"><path d="M227.291185 338.032321v104.560451a40.662398 40.662398 0 0 0 81.324796 0v-104.560451a40.662398 40.662398 0 0 0-81.324796 0zM397.236772 245.089698v290.445698a40.662398 40.662398 0 0 0 81.324796 0v-290.445698a40.662398 40.662398 0 1 0-81.324796 0zM863.76227 626.200925a37.269992 37.269992 0 0 0-34.017-22.073873h-0.929426a37.177049 37.177049 0 0 0-33.970529 22.073873l-152.844144 343.934178a37.177049 37.177049 0 1 0 67.894586 30.159881l39.547086-88.992562h159.675427l39.547087 88.992562a37.177049 37.177049 0 0 0 67.941057-30.159881l-152.844144-343.934178z m-78.164746 203.776702l43.683033-98.286825 43.683033 98.286825h-87.366066z" p-id="7648"></path><path d="M511.184428 941.044062c-2.741807 0-5.483615 0-8.17895-0.092943a198.525443 198.525443 0 0 1-9.108377 0.185885H179.518677a23.235656 23.235656 0 0 1-20.168549-34.807012l50.653729-88.434906A428.465494 428.465494 0 0 1 81.324795 511.184428c0-237.421931 192.437702-429.859633 429.859633-429.859633s429.859633 192.437702 429.859634 429.859633A40.662398 40.662398 0 0 0 1022.368857 511.184428c0-282.313218-228.87121-511.184428-511.184429-511.184428S0 228.87121 0 511.184428c0 120.128341 41.45241 230.590649 110.787607 317.817301L39.872385 952.801303A46.471312 46.471312 0 0 0 80.163013 1022.368857H511.184428a40.662398 40.662398 0 0 0 0-81.324795z" p-id="7649"></path><path d="M648.507154 314.796665a40.662398 40.662398 0 1 0-81.324795 0v151.031763a40.662398 40.662398 0 0 0 81.324795 0v-151.031763z" p-id="7650"></path></svg>