<?xml version="1.0" standalone="no"?><!DOCTYPE svg PUBLIC "-//W3C//DTD SVG 1.1//EN" "http://www.w3.org/Graphics/SVG/1.1/DTD/svg11.dtd"><svg t="1733730986097" class="icon" viewBox="0 0 1024 1024" version="1.1" xmlns="http://www.w3.org/2000/svg" p-id="9683" xmlns:xlink="http://www.w3.org/1999/xlink" width="200" height="200"><path d="M381.76 554.688H211.072c-42.496 0-77.504 32.32-81.728 73.728l-0.384 8.384v170.688c0 42.496 32.32 77.44 73.728 81.664l8.384 0.448H381.76c42.496 0 77.44-32.32 81.664-73.728l0.448-8.384V636.8a82.112 82.112 0 0 0-72.896-81.6l-9.216-0.512z m426.624 0H637.76c-42.56 0-77.504 32.32-81.728 73.728l-0.448 8.384v170.688c0 42.496 32.32 77.44 73.728 81.664l8.448 0.448h170.624c42.56 0 77.504-32.32 81.728-73.728l0.448-8.384V636.8a82.112 82.112 0 0 0-72.896-81.6l-9.28-0.512zM381.76 633.6l3.2 3.2-3.2 173.888-173.888-3.2 3.2-173.888H381.76z m426.624 0l3.2 3.2-3.2 173.888-173.824-3.2 3.2-173.888h170.624z m0-505.6H637.76c-42.56 0-77.504 32.32-81.728 73.728l-0.448 8.384V380.8c0 42.496 32.32 77.504 73.728 81.728l8.448 0.384h170.624c42.56 0 77.504-32.32 81.728-73.728l0.448-8.384V210.112c0-42.496-32.32-77.44-73.728-81.664L808.32 128zM438.4 129.28L250.368 312.768l-62.08-66.56L128 302.08l120.576 120.64 1.92 6.016 4.672-4.48 241.28-236.8-58.048-58.112z m369.984 77.632l3.2 3.2-3.2 173.888-173.824-3.2 3.2-173.888h170.624z" p-id="9684"></path></svg>