<?xml version="1.0" standalone="no"?><!DOCTYPE svg PUBLIC "-//W3C//DTD SVG 1.1//EN" "http://www.w3.org/Graphics/SVG/1.1/DTD/svg11.dtd"><svg t="1733905701501" class="icon" viewBox="0 0 1024 1024" version="1.1" xmlns="http://www.w3.org/2000/svg" p-id="44291" xmlns:xlink="http://www.w3.org/1999/xlink" width="200" height="200"><path d="M384 857.6H176v-208c0-26.24-21.76-48-48-48s-48 21.76-48 48v249.6c0 30.08 24.32 54.4 54.4 54.4H384c26.24 0 48-21.76 48-48s-21.76-48-48-48zM896 601.6c-26.24 0-48 21.76-48 48v208H640c-26.24 0-48 21.76-48 48s21.76 48 48 48h249.6c30.08 0 54.4-24.32 54.4-54.4v-249.6c0-26.24-21.76-48-48-48zM128 441.6c26.24 0 48-21.76 48-48V185.6H384c26.24 0 48-21.76 48-48S410.24 89.6 384 89.6H134.4a54.4 54.4 0 0 0-54.4 54.4v249.6c0 26.88 21.76 48 48 48zM889.6 89.6H640c-26.24 0-48 21.76-48 48s21.76 48 48 48h208v208c0 26.24 21.76 48 48 48s48-21.76 48-48v-249.6a54.4 54.4 0 0 0-54.4-54.4zM728.96 352a48.256 48.256 0 0 0-67.84 0L446.08 567.04 366.72 487.68a48.256 48.256 0 0 0-67.84 0c-18.56 18.56-18.56 49.28 0 67.84l108.16 108.16c10.24 10.24 24.32 16.64 39.04 16.64l24.32-1.92 258.56-258.56c18.56-18.56 18.56-48.64 0-67.84z" p-id="44292" fill="#ffffff"></path></svg>