<?xml version="1.0" standalone="no"?><!DOCTYPE svg PUBLIC "-//W3C//DTD SVG 1.1//EN" "http://www.w3.org/Graphics/SVG/1.1/DTD/svg11.dtd"><svg t="1733968645228" class="icon" viewBox="0 0 1024 1024" version="1.1" xmlns="http://www.w3.org/2000/svg" p-id="47497" xmlns:xlink="http://www.w3.org/1999/xlink" width="200" height="200"><path d="M210.3 429.5c-45.4 0-82.3 36.8-82.3 82.3s36.8 82.3 82.3 82.3c45.4 0 82.3-36.8 82.3-82.3s-36.9-82.3-82.3-82.3z m301.7 0c-45.4 0-82.3 36.8-82.3 82.3s36.8 82.3 82.3 82.3c45.4 0 82.3-36.8 82.3-82.3s-36.9-82.3-82.3-82.3z m301.7 0c-45.4 0-82.3 36.8-82.3 82.3s36.8 82.3 82.3 82.3 82.3-36.8 82.3-82.3-36.8-82.3-82.3-82.3z" fill="#bfbfbf" p-id="47498"></path></svg>