<?xml version="1.0" standalone="no"?><!DOCTYPE svg PUBLIC "-//W3C//DTD SVG 1.1//EN" "http://www.w3.org/Graphics/SVG/1.1/DTD/svg11.dtd"><svg t="1733822572846" class="icon" viewBox="0 0 1024 1024" version="1.1" xmlns="http://www.w3.org/2000/svg" p-id="29316" xmlns:xlink="http://www.w3.org/1999/xlink" width="200" height="200"><path d="M508.8256 102.4c175.4624 0 295.0144 139.008 309.1968 273.408 3.584 33.9968-0.8192 73.3696-13.7216 123.5968-7.68 29.952-35.1232 89.088-57.344 123.2896-10.7008 17.7152-164.9152 175.0528-238.336 298.9056l-254.5664-340.8384-1.6384-2.8672a345.6 345.6 0 0 1-29.5424-65.024A356.096 356.096 0 0 1 204.8 403.2C204.8 237.3632 341.1968 102.4 508.8256 102.4zM512 512a102.4 102.4 0 1 0 0-204.8 102.4 102.4 0 0 0 0 204.8z" fill="#666666" p-id="29317"></path></svg>