<?xml version="1.0" standalone="no"?><!DOCTYPE svg PUBLIC "-//W3C//DTD SVG 1.1//EN" "http://www.w3.org/Graphics/SVG/1.1/DTD/svg11.dtd"><svg t="1734406263574" class="icon" viewBox="0 0 1024 1024" version="1.1" xmlns="http://www.w3.org/2000/svg" p-id="54809" xmlns:xlink="http://www.w3.org/1999/xlink" width="200" height="200"><path d="M434.688 238.08l112.64-30.72c5.632-1.536 8.704-7.168 7.168-12.8-1.536-5.632-7.168-8.704-12.8-7.168l-112.64 30.72c-5.632 1.536-8.704 7.168-7.168 12.8s7.168 8.704 12.8 7.168z" p-id="54810" fill="#098e64"></path><path d="M834.048 692.224l-6.144-22.528c15.872-16.896 22.528-41.472 16.384-65.536-5.632-19.968-19.456-35.84-36.864-44.032 17.408-17.408 25.088-43.52 18.432-69.12-6.144-23.04-23.552-40.448-44.032-47.616 13.824-16.896 19.968-40.448 13.824-63.488-6.144-23.04-23.04-40.448-44.032-47.616 13.824-17.408 19.968-40.448 13.824-63.488-8.704-29.184-33.28-48.64-61.44-51.712l-20.992-75.776c-9.216-32.768-43.008-52.224-75.264-43.008L325.12 175.616C292.352 184.32 272.896 218.112 282.112 250.88l8.192 30.72C262.656 298.496 240.64 321.536 225.28 343.04c-17.92 25.088-30.208 80.384-34.304 109.568-4.096 29.696 22.016 85.504 25.6 93.184 3.584 7.68 18.432 31.232-8.704 60.416-27.136 29.184-94.72 69.632-109.568 84.48-14.336 15.36-44.032 66.56 5.632 110.592 49.664 44.032 145.92 122.368 145.92 122.368s68.608 50.688 114.688-13.312l46.08-64.512 23.552-39.936c10.752 30.208 43.008 47.616 74.24 38.912l282.624-76.8c32.768-9.216 52.224-43.008 43.008-75.776z m-45.056-27.136l-92.16 25.088c-23.552 6.144-47.616-7.168-53.76-30.72-6.144-23.552 7.168-47.616 30.72-53.76l92.16-25.088c23.552-6.144 47.616 7.168 53.76 30.72 6.656 23.04-7.168 47.104-30.72 53.76z m11.776-166.912c6.656 24.064-7.68 48.64-31.232 54.784l-111.616 30.72c-24.064 6.656-48.64-7.68-54.784-31.232-6.656-24.064 7.68-48.64 31.232-54.784l111.616-30.72c23.552-6.656 48.128 7.68 54.784 31.232z m-30.72-111.104c6.656 24.064-7.68 48.64-31.232 54.784l-111.616 30.72-33.28 9.216c-24.064 6.656-48.64-7.68-54.784-31.232-6.656-24.064 7.68-48.64 31.232-54.784l144.896-39.936c23.552-6.656 48.128 7.168 54.784 31.232z m-30.72-111.616c6.656 24.064-7.68 48.64-31.232 54.784l-111.616 30.72c-24.064 6.656-48.64-7.68-54.784-31.232-6.656-24.064 7.68-48.64 31.232-54.784l111.616-30.72c23.552-6.656 48.128 7.168 54.784 31.232z m-417.792-10.752c-6.656-24.576 7.68-49.664 32.256-56.832l246.784-67.584c24.576-6.656 49.664 7.68 56.832 32.256l13.312 48.128-28.672 7.68c-7.168-10.752-20.48-16.384-33.792-12.8L391.168 275.456c-6.144 1.536-11.776 5.12-15.36 10.24-10.24-6.656-31.232-18.432-53.248-16.896l-1.024-4.096z m8.704 162.816l91.136 333.312-85.504 120.832s-23.552 36.352-54.272 14.848l-30.72-21.504-123.904-107.52s-24.576-26.112-1.536-47.616l22.528-20.992s58.88-47.104 75.776-61.952c16.896-14.848 53.76-43.52 30.72-101.376S229.888 467.456 229.376 450.56c0-17.408 15.36-67.584 26.112-88.576 0 0 17.92-29.184 44.544-46.592 9.728-6.144 18.944-9.728 26.112-11.264 14.336-2.56 27.136 1.536 37.888 7.168 1.536 0.512 4.096 1.536 7.168 3.584 0.512 0 1.024 0.512 1.024 0.512 0.512 0 0.512 0.512 1.024 0.512s0.512 0.512 1.024 0.512 0.512 0.512 1.024 0.512 0.512 0.512 1.024 0.512 1.024 0.512 1.024 0.512c0.512 0.512 1.024 0.512 1.536 1.024 0.512 0 0.512 0.512 1.024 0.512s1.024 0.512 1.024 0.512c0.512 0 0.512 0.512 1.024 0.512 0.512 0.512 1.024 0.512 1.536 1.024l0.512 0.512 3.072 1.536c0.512 0 0.512 0.512 1.024 0.512 0.512 0.512 1.024 0.512 1.536 1.024 0.512 0 0.512 0.512 1.024 0.512 1.536 1.024 3.584 2.048 5.632 3.584 0.512 0 0.512 0.512 1.024 0.512 0.512 0.512 1.024 0.512 1.536 1.024 0.512 0 1.024 0.512 1.024 0.512 38.912 24.064 94.208 60.416 94.208 60.416C486.4 435.2 464.384 453.632 416.768 454.656h-8.704c-10.752 0-36.864-6.656-36.864-6.656-22.016-7.168-36.864-17.92-40.96-20.48z m187.392 378.368c-24.576 6.656-49.664-7.68-56.832-32.256L382.976 487.936c14.336 2.56 35.328 2.56 35.328 2.56l50.688 184.32c4.608 16.384 21.504 26.112 37.888 21.504l105.472-28.672v0.512c1.536 5.12 3.584 9.728 5.632 14.336-15.872 5.632-24.576 22.528-19.968 38.912 4.608 16.896 22.528 27.136 39.424 22.528 12.8-3.584 22.016-14.848 23.552-27.136 11.776 3.072 24.064 3.584 36.352 0l98.816-27.136c0.512 0 1.536-0.512 2.048-0.512 2.56 22.016-11.264 43.52-33.792 49.152l-246.784 67.584zM157.696 218.624c3.072 1.024 6.144 1.024 8.704 0 5.12-1.536 9.728-5.632 11.264-11.264 17.408-59.904 62.464-108.032 120.32-129.536 8.192-3.072 12.8-12.288 9.728-20.992S295.424 44.032 286.72 47.104C218.624 71.68 166.4 128 145.92 198.144c-2.048 9.216 3.072 18.432 11.776 20.48zM310.784 113.664c-46.592 16.896-82.944 55.808-97.28 103.936-2.56 8.704 2.56 17.408 11.264 19.968 3.072 1.024 6.144 1.024 8.704 0 5.12-1.536 9.728-5.632 11.264-11.264 11.264-38.4 39.936-69.12 77.312-82.432 8.192-3.072 12.8-12.288 9.728-20.992-3.072-8.192-12.288-12.288-20.992-9.216zM952.32 701.952c-3.072-0.512-6.144 0.512-8.704 1.536-5.12 2.56-8.704 7.168-9.216 13.312-6.144 61.952-41.472 117.76-94.72 149.504-7.68 4.608-10.24 14.336-5.632 22.016 4.608 7.68 14.336 10.24 22.016 5.632 62.464-36.864 103.424-101.888 110.592-174.08 1.536-8.704-5.12-16.896-14.336-17.92zM897.536 713.728c1.024-8.704-5.632-16.896-14.336-17.92-3.072-0.512-6.144 0.512-8.704 1.536-5.12 2.56-8.704 7.168-9.216 12.8-4.096 39.424-26.624 75.264-60.416 95.232-7.68 4.608-10.24 14.336-5.632 22.016 4.608 7.68 14.336 10.24 22.016 5.632 43.008-24.576 71.168-69.632 76.288-119.296z" p-id="54811" fill="#098e64"></path></svg>