<svg width="800" height="290"
     xmlns="http://www.w3.org/2000/svg" version="1.1">
<style>path {fill-opacity:1; stroke:none;}</style>
<path d="M 796,82L 794.6946,81.5556L 792.1159,80.6344L 789.6151,79.6346L 787.1939,78.5558L 786,78L 782,78L 780.9142,78.3671L 778.6341,79.0294L 776.0509,79.5147L 773.046,79.8011L 769.6211,79.9353L 765.8839,79.984L 761.9745,79.9972L 757.9964,79.9997L 753.9998,80L 750,80L 29,80L 26.0373,80.3091L 23.1035,80.3692L 20.2233,80.0485L 17.3995,79.3935L 16,79L 13,79L 10.6592,80.1469L 8.2247,81.2089L 5.6586,82.1486L 3,83L 1,84L 0,85L 0,88L 0.6093,89.1929L 1.8151,91.5885L 3,94L 5,94L 5.6968,93.1414L 7.2193,91.5364L 9.093,90.2225L 11.4503,89.2725L 14.3155,88.66L 17.6222,88.3061L 21.2537,88.1242L 25.0868,88.0427L 29.0241,88.0119L 33.0052,88.0026L 37.0008,88.0004L 41.0001,88L 45,88L 49,88L 756,88L 760,88L 762,88L 763.9997,88.0003L 765.9987,88.0013L 767.9953,88.0043L 771.9756,88.0208L 773.935,88.0522L 775.8429,88.1189L 779.4246,88.3927L 781.8217,89.2971L 781.8281,90.7243L 779.4758,91.6781L 775.9084,91.9432L 771.9869,91.9912L 767.9985,91.9989L 763.9999,91.9999L 760,92L 756,92L 50,92L 46,92L 42.0001,92L 38.0008,91.9996L 34.0052,91.9974L 30.0236,91.9882L 26.0828,91.9586L 22.2306,91.8847L 18.5264,91.7368L 15.0069,91.4966L 11.6476,91.1762L 10,91L 8,91L 8,94L 10,94L 11.6476,93.8238L 15.0069,93.5034L 18.5264,93.2632L 22.2306,93.1153L 26.0828,93.0414L 30.0236,93.0118L 34.0052,93.0026L 38.0008,93.0004L 42.0001,93L 46,93L 50,93L 798,93L 799,90L 799,85L 798,84ZM 7.75,85.5L 6.375,84.75ZM 784.5,84L 785.25,85Z" style="fill:rgb(173,173,173);"/>
<path d="M 32,74L 27,74L 25,75L 23,76L 23,77L 24,78L 27,78L 29,77L 30,76.3333L 32,75Z" style="fill:rgb(173,173,173);"/>
<path d="M 110,45L 113,45L 114,44L 114,43L 111,42L 110,42Z" style="fill:rgb(173,173,173);"/>
<path d="M 129,44L 121,44L 121,45L 122,46L 127,46L 129,45Z" style="fill:rgb(173,173,173);"/>
<path d="M 158,34L 158,32L 157,32L 155.6044,32.2058L 152.8071,32.6093L 150,33L 150,34L 150.6667,35L 152,37L 153,37L 156,36Z" style="fill:rgb(173,173,173);"/>
<path d="M 189,32L 185.3693,31.6774L 181.8969,31.2463L 178.6893,30.643L 175.7569,29.8722L 173,29L 172,29L 170,30L 169.751,31.0001L 169.251,33.0001L 169,34L 169,35L 172,35L 173.3529,34.6796L 176.1388,34.0869L 179.1182,33.6184L 182.3021,33.3019L 185.6226,33.1149L 189,33Z" style="fill:rgb(173,173,173);"/>
<path d="M 188,31L 187,29L 185.6667,28.3333L 183,27L 182,27L 180.7505,27.501L 178.2505,28.501L 177,29L 177,30L 178.2505,30.499L 180.7505,31.499L 182,32L 188,32Z" style="fill:rgb(173,173,173);"/>
<path d="M 182,32L 182,30L 177,30L 175,31L 175,32Z" style="fill:rgb(173,173,173);"/>
<path d="M 201,30L 204,29L 204,28L 202.6667,27.3333L 200,26L 196,26L 193.205,26.4115L 190.4031,26.8071L 189,27L 187,29L 186,30L 186,31L 190,31L 191.5488,30.8216L 194.6638,30.4917L 197.8169,30.2218Z" style="fill:rgb(173,173,173);"/>
<path d="M 199,22L 196,22L 194.7505,22.2505L 192.2505,22.7505L 191,23L 191,25L 192,26L 194,26L 196,26L 197,26L 198,25L 199,24Z" style="fill:rgb(173,173,173);"/>
<path d="M 201,22L 199,22L 198.3333,23L 197,25L 197,26L 198.3333,26.6667L 201,28L 207,28L 207,27L 206.0675,26.3434L 204.2592,24.9866L 202.5785,23.5324Z" style="fill:rgb(173,173,173);"/>
<path d="M 212,24L 209.501,25L 207,26L 207,27L 214,27L 214,24Z" style="fill:rgb(173,173,173);"/>
<path d="M 219,26L 220,25L 220,23L 216,23L 214,24L 214,26Z" style="fill:rgb(173,173,173);"/>
<path d="M 240,23L 237.2958,22.3896L 234.6291,21.723L 232,21L 226,21L 224,21L 222,21L 222,23L 223,25L 233,25L 234.3956,24.7942L 237.1929,24.3907L 240,24Z" style="fill:rgb(173,173,173);"/>
<path d="M 228,18L 222,18L 221,19L 221,20L 228,20Z" style="fill:rgb(173,173,173);"/>
<path d="M 243,16L 232,16L 231,17L 231,18L 233,19L 238,19L 239.2485,18.499L 241.7485,17.499L 243,17Z" style="fill:rgb(173,173,173);"/>
<path d="M 267,20L 267,19L 267,18L 265.2958,17.7042L 261.9249,17.0751L 258.6291,16.3709L 257,16L 248,16L 246.7515,16.501L 244.2515,17.501L 243,18L 241.6667,18.6667L 239,20L 238,21L 238,23L 239.2505,23.2495L 241.7505,23.7495L 243,24L 244,24L 245.6291,23.8146L 247.277,23.6385L 250.563,23.31L 253.7173,23.0416L 256.5932,22.8684L 259.2292,22.8299L 261.7528,22.9243L 263,23L 265,23L 266,22L 267,21Z" style="fill:rgb(173,173,173);"/>
<path d="M 266,16L 260,16L 260,17L 266,17Z" style="fill:rgb(173,173,173);"/>
<path d="M 290,9L 288,9L 286.8521,9.3521L 284.5375,10.0375L 282.1854,10.6854L 281,11L 281,12L 291,12L 291,10Z" style="fill:rgb(173,173,173);"/>
<path d="M 293,16L 291,14L 289,13L 286,13L 283.501,14L 281,15L 281,16L 282,17L 293,17Z" style="fill:rgb(173,173,173);"/>
<path d="M 315,13L 312.3333,12.3333L 311,12L 301,12L 301,14L 315,14Z" style="fill:rgb(173,173,173);"/>
<path d="M 320,7L 318,7L 316.5125,7.1854L 313.525,7.5375L 310.5125,7.8521L 309,8L 309,9L 320,9Z" style="fill:rgb(173,173,173);"/>
<path d="M 335,7L 334,6L 333,6L 330,7L 330,8L 335,8Z" style="fill:rgb(173,173,173);"/>
<path d="M 379,5L 369,5L 369,6L 379,6Z" style="fill:rgb(173,173,173);"/>
<path d="M 417,4L 388,4L 388,5L 391.9224,5.0388L 395.7702,5.1149L 399.4737,5.2631L 402.9931,5.5034L 406.3524,5.8238L 408,6L 417,6Z" style="fill:rgb(173,173,173);"/>
<path d="M 427,10L 417,10L 417,11L 427,11Z" style="fill:rgb(173,173,173);"/>
<path d="M 437,7L 437,5L 431,5L 431,6L 434,7Z" style="fill:rgb(173,173,173);"/>
<path d="M 456,10L 447,10L 447,11L 456,11Z" style="fill:rgb(173,173,173);"/>
<path d="M 494.5564,15.2218L 498.0167,15.4917L 501.3567,15.8216L 503,16L 505,16L 505,14L 502.3333,13.3333L 501,13L 488,13L 488,14L 491,15Z" style="fill:rgb(173,173,173);"/>
<path d="M 505,9L 505,11L 512,11L 513,10L 513,9Z" style="fill:rgb(173,173,173);"/>
<path d="M 515,15L 516.3333,14.6667L 519,14L 519,13L 512,13L 512,15Z" style="fill:rgb(173,173,173);"/>
<path d="M 525,18L 527,16.6667L 528,16L 528,15L 527,14L 519,14L 519,15L 520,16L 522.6667,17.3333L 524,18Z" style="fill:rgb(173,173,173);"/>
<path d="M 536,16L 537,15L 537,14L 535,13L 528,13L 527,14L 527,15L 529.8071,15.3907L 532.6044,15.7942L 534,16Z" style="fill:rgb(173,173,173);"/>
<path d="M 538,12L 534,12L 534,13L 535,14L 540,14L 540,13Z" style="fill:rgb(173,173,173);"/>
<path d="M 568,16L 564,16L 561.8741,16.7869L 559.5888,17.3101L 557.0764,17.4284L 554.3814,17.1898L 553,17L 549,17L 549,21L 550.5125,21.1479L 553.525,21.4625L 556.5125,21.8146L 558,22L 563,22L 564.3956,21.5885L 567.1929,20.7813L 570,20L 570,19L 569.3333,18Z" style="fill:rgb(173,173,173);"/>
<path d="M 586,20L 584,19L 581,18L 575,18L 573.7227,18.2468L 571.1419,18.7301L 568.4947,19.1854L 565.772,19.6053L 563,20L 563,23L 565.8071,23.3907L 568.6044,23.7942L 570,24L 573,24L 575.2332,22.9525L 577.5589,22.0876L 580.097,21.5023L 582.9329,21.1763L 586,21Z" style="fill:rgb(173,173,173);"/>
<path d="M 567,17L 567,19L 575,19L 576,18L 576,17L 573.1929,16.6093L 570.3956,16.2058L 569,16L 568,16Z" style="fill:rgb(173,173,173);"/>
<path d="M 585,25L 583,23L 579,23L 579,24L 580,25L 582,26L 585,26Z" style="fill:rgb(173,173,173);"/>
<path d="M 595,24L 591,24L 590,25L 590,27L 592,28L 594,28L 597,27L 597,25Z" style="fill:rgb(173,173,173);"/>
<path d="M 601,22L 599,21L 597,21L 596,22L 595,24L 594.3333,26L 594,27L 594,28L 596,29L 602,29L 603,27L 603,26L 602.499,25.0004L 601.499,23.0004Z" style="fill:rgb(173,173,173);"/>
<path d="M 613,24L 610,23L 609,23L 607.0851,24.2947L 605.1066,25.4748L 603.0476,26.5127L 602,27L 602,29L 608,29L 609.3333,28.6667L 612,28L 612.3333,27L 613,25Z" style="fill:rgb(173,173,173);"/>
<path d="M 608,31L 612,31L 612,28L 608,28Z" style="fill:rgb(173,173,173);"/>
<path d="M 621,32L 621,30L 614,30L 614,31L 617,32Z" style="fill:rgb(173,173,173);"/>
<path d="M 635,28L 632,27L 630.499,26.7505L 627.499,26.2505L 626,26L 622,26L 620.6667,26.3333L 618,27L 617,28L 617,29L 619.6667,29.6667L 621,30L 622.2058,30.197L 624.6436,30.6084L 627.1546,31.0736L 629.7474,31.6263L 632.3765,32.2787L 635,33L 636,33L 637,32L 637,31L 636.3333,30Z" style="fill:rgb(173,173,173);"/>
<path d="M 651,36L 652,34L 652,33L 650,32L 649,32L 646.5005,32.0015L 644,32L 643,32L 643,34L 644.3986,34.3971L 647.1978,35.1953L 650,36Z" style="fill:rgb(173,173,173);"/>
<path d="M 653,36L 647,36L 647,37L 649,39L 651,40L 654,40L 654,39Z" style="fill:rgb(173,173,173);"/>
<path d="M 650,32L 650,33L 651,36L 653,37L 655,38L 657,39L 660,39L 660,37L 660,35L 660,34L 658,33L 655.3333,32.3333L 654,32Z" style="fill:rgb(173,173,173);"/>
<path d="M 666,35L 663.3333,34.3333L 662,34L 660,34L 658,35L 658,37L 660,39L 662,39L 664,38L 666,37Z" style="fill:rgb(173,173,173);"/>
<path d="M 717,52L 718,51L 718,50L 712,50L 711,51L 711,52Z" style="fill:rgb(173,173,173);"/>
<path d="M 770,72L 763,72L 763,73L 770,73Z" style="fill:rgb(173,173,173);"/>
<path d="M 767,77L 767,75L 765,75L 763,76L 763,77Z" style="fill:rgb(173,173,173);"/>
<path d="M 121,47L 117,47L 117,49L 122,49L 122,48Z" style="fill:rgb(162,162,162);"/>
<path d="M 131,44L 131,45L 132,46L 136,46L 136,44Z" style="fill:rgb(162,162,162);"/>
<path d="M 625,34L 622.3333,33.3333L 621,33L 617,33L 614.3294,33.5545L 611.6643,33.9011L 609.0377,33.9061L 606.4864,33.5625L 604,33L 600,33L 597.2131,33.3487L 594.3454,33.632L 591.3316,33.8078L 588.1492,33.8547L 584.8518,33.745L 581.5743,33.4276L 578.4769,32.8493L 575.642,32.0091L 573,31L 223,31L 221.9781,31.2979L 219.9393,31.704L 217.9217,31.6269L 215.9436,30.9957L 214,30L 210,30L 207.9696,30.8472L 205.755,31.4795L 203.2394,31.8263L 200.4494,31.9656L 199,32L 196.3041,32.6243L 193.5782,33.1939L 190.7935,33.6461L 187.93,33.9261L 184.9892,34.0232L 182,34L 176,34L 174.8518,34.3639L 172.476,35.0234L 169.8696,35.5118L 166.9314,35.8045L 163.686,35.9522L 162,36L 160.6044,36.4115L 157.8071,37.2187L 155,38L 152.5755,38.7878L 150.1063,39.5531L 147.5748,40.2874L 145,41L 142.501,42L 140,43L 138,45L 138,46L 141.3334,46.6666L 143,47L 152,47L 154.9239,46.7669L 157.8352,46.6424L 160.7209,46.6851L 163.578,46.8755L 165,47L 175,47L 177.6545,45.9909L 180.5332,45.1499L 183.757,44.5677L 187.3134,44.2351L 191.1064,44.0798L 195.0288,44.0216L 199.006,44.0045L 203.0009,44.0007L 207.0001,44.0001L 211,44L 215,44L 591,44L 595,44L 598.9999,44.0001L 602.9991,44.0007L 606.994,44.0045L 610.9712,44.0216L 614.8936,44.0798L 618.6866,44.2351L 622.243,44.5677L 625.4668,45.1499L 628.3455,45.9909L 631,47L 640,47L 642.9545,46.6576L 645.9781,46.4329L 649.0885,46.3949L 652.2499,46.5458L 655.4182,46.8323L 657,47L 659.8228,47.0119L 662.5189,47.0629L 665.1538,47.1999L 667.8427,47.4526L 670.6047,47.8046L 672,48L 675,48L 675,47L 674,46L 671.3333,44.6667L 670,44L 668.6731,43.7169L 666.0643,43.097L 663.564,42.3472L 661.1729,41.4671L 660,41L 657,40L 653.8169,39.5564L 652.2403,39.2865L 649.1326,38.6917L 646.1603,38.0217L 643.3596,37.3383L 642,37L 640.4743,36.8448L 637.4187,36.498L 635.883,36.2764L 632.7988,35.7693L 629.6902,35.1345L 626.5651,34.3926ZM 655.75,44L 657,44ZM 202,34L 203,35ZM 211.875,37.5L 211,37Z" style="fill:rgb(162,162,162);"/>
<path d="M 199,30L 190,30L 188,31L 188,32L 195,32L 196.3333,31.6667L 199,31Z" style="fill:rgb(162,162,162);"/>
<path d="M 204,28L 201,29L 201,30L 209,30L 209,28Z" style="fill:rgb(162,162,162);"/>
<path d="M 214,26L 214,27L 220,27L 220,26Z" style="fill:rgb(162,162,162);"/>
<path d="M 262,12L 262,13L 263.2505,13.2495L 265.7505,13.7495L 267,14L 268,14L 268,12Z" style="fill:rgb(162,162,162);"/>
<path d="M 282,28L 282,26L 279,26L 277,27L 277,28Z" style="fill:rgb(162,162,162);"/>
<path d="M 293,16L 293,17L 301,17L 301,16Z" style="fill:rgb(162,162,162);"/>
<path d="M 347,13L 330,13L 330,14L 347,14Z" style="fill:rgb(162,162,162);"/>
<path d="M 370,12L 349,12L 349,13L 370,13Z" style="fill:rgb(162,162,162);"/>
<path d="M 380,4L 372,4L 372,5L 380,5Z" style="fill:rgb(162,162,162);"/>
<path d="M 427,12L 427,13L 447,13L 447,12Z" style="fill:rgb(162,162,162);"/>
<path d="M 450,5L 450,6L 456,6L 456,5Z" style="fill:rgb(162,162,162);"/>
<path d="M 466,13L 459,13L 459,14L 466,14Z" style="fill:rgb(162,162,162);"/>
<path d="M 485,14L 475,14L 475,15L 485,15Z" style="fill:rgb(162,162,162);"/>
<path d="M 534,19L 528,19L 528,20L 534,20Z" style="fill:rgb(162,162,162);"/>
<path d="M 547,20L 538,20L 538,21L 547,21Z" style="fill:rgb(162,162,162);"/>
<path d="M 585,26L 578,26L 578,27L 585,27Z" style="fill:rgb(162,162,162);"/>
<path d="M 592,27L 585,27L 585,28L 592,28Z" style="fill:rgb(162,162,162);"/>
<path d="M 592,31L 592,33L 600,33L 600,32L 597,31Z" style="fill:rgb(162,162,162);"/>
<path d="M 606,29L 606,32L 612,32L 612,31L 609.3333,29.6667L 608,29Z" style="fill:rgb(162,162,162);"/>
<path d="M 36,73L 34,74L 34,75L 35,76L 39,76L 39,73Z" style="fill:rgb(168,168,168);"/>
<path d="M 74,67L 74,66L 73,63L 70,63L 67.3333,64.3333L 66,65L 66,66L 68,67Z" style="fill:rgb(168,168,168);"/>
<path d="M 80,61L 78,59L 74,59L 73,60L 73,63L 78,63L 80,62Z" style="fill:rgb(168,168,168);"/>
<path d="M 81,66L 83,65L 83,64L 82,63L 81,63L 79.5983,63.4036L 76.7973,64.2058L 74,65L 74,66Z" style="fill:rgb(168,168,168);"/>
<path d="M 84,61L 84,63L 86,64.3333L 87,65L 88,65L 89.6476,64.6476L 93.0069,64.0069L 96.5264,63.5264L 100.2306,63.2306L 104.0828,63.0828L 108.0236,63.0236L 112.0052,63.0052L 116.0008,63.0008L 120.0001,63.0001L 124,63L 128,63L 718,63L 718,61L 128,61L 124,61L 120.0001,61L 116.0008,60.9996L 112.0052,60.9974L 108.0236,60.9882L 104.0828,60.9586L 100.2306,60.8847L 96.5264,60.7368L 93.0069,60.4966L 89.6476,60.1762L 88,60L 87,60Z" style="fill:rgb(168,168,168);"/>
<path d="M 101,51L 101,53L 103,53L 106,52L 106,51Z" style="fill:rgb(168,168,168);"/>
<path d="M 126,42L 126,41L 126,40L 122,40L 122,43L 126,43Z" style="fill:rgb(168,168,168);"/>
<path d="M 207,25L 204,25L 204,27L 207,27Z" style="fill:rgb(168,168,168);"/>
<path d="M 245,15L 242.6093,15.8151L 240.2058,16.6093L 239,17L 239,18L 240,19L 243,19L 244.499,18.7495L 247.499,18.2495L 249,18L 249,17L 249,16L 249,15Z" style="fill:rgb(168,168,168);"/>
<path d="M 280,15L 280,14L 279,13L 272,13L 272,14L 274,15Z" style="fill:rgb(168,168,168);"/>
<path d="M 344,8L 329,8L 329,9L 330,10L 335,10L 337.4995,9.9985L 340,10L 344,10Z" style="fill:rgb(168,168,168);"/>
<path d="M 349,12L 330,12L 330,13L 349,13Z" style="fill:rgb(168,168,168);"/>
<path d="M 363,6L 354,6L 354,7L 363,7Z" style="fill:rgb(168,168,168);"/>
<path d="M 374,11L 359,11L 359,12L 374,12Z" style="fill:rgb(168,168,168);"/>
<path d="M 379,6L 363,6L 363,7L 364,8L 371,8L 372.5885,7.7942L 375.7813,7.3907L 379,7Z" style="fill:rgb(168,168,168);"/>
<path d="M 388,9L 388,6L 384,6L 383,8L 383,9Z" style="fill:rgb(168,168,168);"/>
<path d="M 437,11L 427,11L 427,12L 437,12Z" style="fill:rgb(168,168,168);"/>
<path d="M 437,6L 435.7505,6.2505L 433.2505,6.7505L 432,7L 432,8L 434,9L 441,9L 441,6Z" style="fill:rgb(168,168,168);"/>
<path d="M 468,8L 465.1929,7.2187L 462.3956,6.4115L 461,6L 460,6L 460,9L 462,10L 466,10L 468,9Z" style="fill:rgb(168,168,168);"/>
<path d="M 485,9L 472,9L 472,10L 485,10Z" style="fill:rgb(168,168,168);"/>
<path d="M 504,14L 505,14L 506.3333,13.3333L 509,12L 509,11L 502,11L 502,13Z" style="fill:rgb(168,168,168);"/>
<path d="M 515,10L 515,13L 517.6667,13.6667L 519,14L 526,14L 526,13L 525,12L 523.499,11.501L 520.499,10.501L 519,10Z" style="fill:rgb(168,168,168);"/>
<path d="M 534,12L 531.3333,11.3333L 530,11L 528,11L 525,12L 525,13L 526,14L 528,14L 529.499,13.7495L 532.499,13.2495L 534,13Z" style="fill:rgb(168,168,168);"/>
<path d="M 544,17L 542.7495,16.7505L 540.2495,16.2505L 539,16L 536,16L 536,18L 544,18Z" style="fill:rgb(168,168,168);"/>
<path d="M 558,21L 551,21L 551,22L 558,22Z" style="fill:rgb(168,168,168);"/>
<path d="M 557,15L 557,16L 559.002,17.4985L 561,19L 565,19L 565,17L 564,16L 562,15Z" style="fill:rgb(168,168,168);"/>
<path d="M 592,20L 592,21L 592.3333,22L 593,24L 597,24L 597,23L 596.2495,22.2505L 594.7495,20.7505L 594,20Z" style="fill:rgb(168,168,168);"/>
<path d="M 621,32L 621,34L 626,34L 626,33L 624,32Z" style="fill:rgb(168,168,168);"/>
<path d="M 666,42L 660,42L 660,43L 666,43Z" style="fill:rgb(168,168,168);"/>
<path d="M 691,50L 691,51L 698,51L 698,50Z" style="fill:rgb(168,168,168);"/>
<path d="M 711,54L 708,53L 705,53L 705,55L 711,55Z" style="fill:rgb(168,168,168);"/>
<path d="M 721,65L 721,66L 723.6667,66.6667L 725,67L 732,67L 732,65L 729,65L 728,65Z" style="fill:rgb(168,168,168);"/>
<path d="M 728,59L 725,59L 723.5015,60.5015L 722,62L 722,63L 728,63L 729,62L 729,61Z" style="fill:rgb(168,168,168);"/>
<path d="M 729,61L 728,62L 728,64L 732,64L 733,63L 734,62L 734,60L 733,60L 731.6667,60.3333Z" style="fill:rgb(168,168,168);"/>
<path d="M 738,64L 733,64L 733,66L 738,66Z" style="fill:rgb(168,168,168);"/>
<path d="M 738,66L 743,66L 744,65L 744,64L 738,64Z" style="fill:rgb(168,168,168);"/>
<path d="M 752,69L 752,67L 748,67L 748,70L 751,70Z" style="fill:rgb(168,168,168);"/>
<path d="M 759,70L 757,72L 757,73L 761,73L 761,70Z" style="fill:rgb(168,168,168);"/>
<path d="M 20,79L 16,79L 16,80L 17,82L 19,82L 20,81Z" style="fill:rgb(169,169,169);"/>
<path d="M 759.9915,72.508L 759,70L 757,68L 754.2478,67.4392L 751.5811,66.7725L 749,66L 746.2126,65.8969L 743.4888,65.6757L 740.8814,65.2174L 738.4328,64.433L 736.1568,63.3208L 734,62L 733,62L 731.6504,62.1162L 728.9356,62.28L 726.1846,62.2793L 723.3994,62.1155L 722,62L 718,62L 716.3524,62.1762L 712.9931,62.4966L 709.4736,62.7368L 705.7694,62.8847L 701.9172,62.9586L 697.9764,62.9882L 693.9948,62.9974L 689.9992,62.9996L 685.9999,63L 682,63L 678,63L 88,63L 86.6095,63.3892L 83.8287,64.1308L 81.0539,64.7738L 78.3014,65.2826L 75.5901,65.64L 72.9225,65.8334L 70.2692,65.851L 67.5792,65.6934L 64.8181,65.389L 62,65L 56,65L 54.6667,65.3333L 52,66L 49.9894,67.2306L 47.8674,68.4302L 45.5545,69.5704L 43.0352,70.6164L 40.3635,71.5555L 39,72L 39,73L 40.2058,73.5964L 42.6093,74.7942L 45,76L 58,76L 59.0651,75.4392L 61.3853,74.4311L 64.1705,73.7012L 67.4682,73.279L 71.1481,73.0872L 75.0355,73.0204L 79.0061,73.0033L 83.0007,73.0003L 87,73L 91,73L 707,73L 711,73L 714.9999,73.0001L 718.9992,73.0008L 722.9948,73.0052L 726.9764,73.0236L 730.9172,73.0828L 734.7694,73.2306L 738.4736,73.5264L 741.9931,74.0069L 745.3524,74.6476L 747,75L 748.2505,75.2495L 750.7505,75.7495L 752,76L 754,76L 755,76L 761,76L 761,75ZM 725.6602,66.2578L 724.4883,66.418Z" style="fill:rgb(169,169,169);"/>
<path d="M 73,60L 72,60L 70.6667,60.3333L 68,61L 68,65L 72,65L 73,63Z" style="fill:rgb(169,169,169);"/>
<path d="M 81,61L 78,62L 78,64L 81,64L 84,63L 84,61Z" style="fill:rgb(169,169,169);"/>
<path d="M 143,38L 143,36L 140,36L 139,37L 139,38Z" style="fill:rgb(169,169,169);"/>
<path d="M 165,35L 156,35L 156,36L 157,37L 158,38L 162,38L 163,37.3333L 165,36Z" style="fill:rgb(169,169,169);"/>
<path d="M 165,34L 165,32L 164,31.3333L 162,30L 158,30L 158,31L 158,32L 158,33L 159.2505,33.2495L 161.7505,33.7495L 163,34Z" style="fill:rgb(169,169,169);"/>
<path d="M 223,25L 223,23L 222,21L 221,21L 218,21L 214,21L 214,22L 215.4036,22.5964L 218.2058,23.7942L 221,25Z" style="fill:rgb(169,169,169);"/>
<path d="M 272,13L 268,13L 267,13L 264,13L 263,14L 263,15L 264,16L 266,16L 268.4036,15.9831L 270.8022,15.9896L 272,16L 274,16L 274,14Z" style="fill:rgb(169,169,169);"/>
<path d="M 288,12L 285.1929,11.6093L 282.3956,11.2058L 281,11L 280,11L 279,12L 279,14L 280,15L 284,15L 286,14L 288,13Z" style="fill:rgb(169,169,169);"/>
<path d="M 288,12L 288,13L 289,14L 291.8121,14.7739L 294.6075,15.5839L 296,16L 301,16L 303.581,14.6536L 306.3177,13.5273L 309.2737,12.7282L 312.4034,12.207L 314,12L 314,11L 313,10L 296,10L 294.7505,10.2505L 292.2505,10.7505L 291,11Z" style="fill:rgb(169,169,169);"/>
<path d="M 329,8L 325,8L 323.6667,8.3333L 321,9L 319.6667,9.3333L 317,10L 314,11L 311,12L 311,13L 313.6667,13.6667L 315,14L 330,14L 331.1239,13.3409L 333.593,12.2031L 336.5342,11.4754L 339.8442,11.1369L 343.2791,11.0237L 345,11L 345,10L 343.7495,9.7505L 341.2495,9.2505L 340,9L 337.0978,8.8773L 334.2837,8.6819L 331.5963,8.3799Z" style="fill:rgb(169,169,169);"/>
<path d="M 344,5L 343,6L 343,8L 344,10L 346,11L 349,12L 359,12L 360,10L 360,8L 359,7L 357.7495,6.501L 355.2495,5.501L 354,5Z" style="fill:rgb(169,169,169);"/>
<path d="M 424.5005,6.0015L 422,6L 417,6L 415.338,6.1682L 413.6512,6.3223L 411.9356,6.4584L 408.4486,6.6899L 404.8719,6.8328L 401.2788,6.8665L 397.7932,6.7398L 394.5636,6.3577L 391.7019,5.6329L 389.186,4.5886L 388,4L 380,4L 377.5472,5.0374L 375.0061,5.9337L 372.3474,6.6322L 369.6005,7.1664L 366.8087,7.6037L 364,8L 364,9L 366.9298,9.7135L 369.805,10.5351L 372.6118,11.4917L 374,12L 379,12L 380.6476,11.6476L 384.0069,11.0069L 387.5264,10.5264L 391.2306,10.2306L 395.0828,10.0828L 399.0236,10.0236L 403.0052,10.0052L 407.0008,10.0008L 411.0001,10.0001L 415,10L 419,10L 428,10L 429.499,9.7495L 432.499,9.2495L 434,9L 434,8L 434,7L 434,6L 427,6Z" style="fill:rgb(169,169,169);"/>
<path d="M 455,7L 452.1929,6.6093L 449.3956,6.2058L 448,6L 441,6L 439.002,7.5015L 437,9L 437,10L 447,10L 448.3956,9.7942L 451.1929,9.3907L 454,9L 455,8Z" style="fill:rgb(169,169,169);"/>
<path d="M 456,11L 437,11L 437,12L 456,12Z" style="fill:rgb(169,169,169);"/>
<path d="M 495,12L 495,10L 492,9L 488,9L 486.4115,9.1171L 483.2187,9.2711L 480,9.2117L 476.7813,8.8804L 473.5885,8.3228L 472,8L 468,8L 466,9L 466,11L 469.5034,11.0388L 473.037,11.1149L 476.566,11.2631L 480.0156,11.5034L 483.3556,11.8238L 485,12Z" style="fill:rgb(169,169,169);"/>
<path d="M 475,13L 475,14L 485,14L 485,13Z" style="fill:rgb(169,169,169);"/>
<path d="M 504.6667,12L 505,11L 505,9L 501,9L 499.5799,9.4584L 496.7917,10.323L 494.0765,11.0688L 491.3646,11.7042L 490,12L 490,13L 493.1831,13.2218L 496.3362,13.4917L 499.4512,13.8216L 501,14L 504,14Z" style="fill:rgb(169,169,169);"/>
<path d="M 513,15L 510.3333,14.3333L 509,14L 505,14L 505,17L 508,17L 509.2495,16.7495L 511.7495,16.2495L 513,16Z" style="fill:rgb(169,169,169);"/>
<path d="M 534,15L 528,15L 526,16L 525,17L 525,18L 526.2505,18.2495L 528.7505,18.7495L 530,19L 533,19L 535,17.6667L 536,17L 536,16Z" style="fill:rgb(169,169,169);"/>
<path d="M 607,27L 608,26L 608,25L 604,25L 603,26L 603,27Z" style="fill:rgb(169,169,169);"/>
<path d="M 771,73L 763,73L 763,75L 764.2505,75.2495L 766.7505,75.7495L 768,76L 769,76L 771,75Z" style="fill:rgb(169,169,169);"/>
<path d="M 775,75L 770,75L 770,76L 771,77L 774,77L 775,76Z" style="fill:rgb(169,169,169);"/>
<path d="M 12,86L 12,85L 10,84L 4,84L 4,86Z" style="fill:rgb(171,171,171);"/>
<path d="M 29,77L 27,77L 24,78L 21,79L 20,80L 19,81L 19,82L 29,82Z" style="fill:rgb(171,171,171);"/>
<path d="M 36,73L 33,73L 31.6667,73.6667L 29,75L 29,80L 736,80L 740,80L 743.9999,80L 747.9992,80.0004L 751.9948,80.003L 755.9756,80.0144L 759.9128,80.0532L 763.7502,80.1567L 767.4101,80.3785L 770.826,80.7666L 773.9931,81.3272L 777,82L 778,82L 779.3333,81.6667L 782,81L 782,80L 782,79L 782,77L 779,76L 777.5214,75.8502L 774.6293,75.5165L 771.928,75.0769L 769.5177,74.449L 767.4364,73.5545L 765.6373,72.3735L 764,71L 761,71L 758.7167,71.3771L 756.3834,71.7105L 754,72L 752.8649,72.3448L 750.563,72.856L 748.1982,73.0112L 747,73L 99,73L 95,73L 93,73L 89.0004,72.9996L 85.003,72.997L 81.0148,72.9852L 77.0558,72.9442L 73.1685,72.8315L 69.4199,72.5801L 65.8819,72.1181L 62.5904,71.4096L 59.5034,70.4966L 58,70L 55,70L 53.5302,71.8541L 51.8634,73.3288L 49.9148,74.1856L 47.7372,74.3854L 45.4508,74.0514L 43.1482,73.387L 42,73L 39,73Z" style="fill:rgb(171,171,171);"/>
<path d="M 52,66L 51,66L 49.8521,66.3521L 47.5375,67.0375L 45.1854,67.6854L 44,68L 43.0129,68.6093L 41.0209,69.8151L 39,71L 39,72L 40.2505,72.2495L 42.7505,72.7495L 44,73L 48,73L 49.5676,71.3588L 51.18,69.7745L 52,69Z" style="fill:rgb(171,171,171);"/>
<path d="M 143,38L 143,39L 145,40L 153,40L 153,39L 152.7735,38.001L 152.3572,36.0016L 152,34L 145,34L 144,35Z" style="fill:rgb(171,171,171);"/>
<path d="M 163,34L 163,35L 165,36L 169,36L 169,32L 165,32Z" style="fill:rgb(171,171,171);"/>
<path d="M 175,26L 173.7505,26.2505L 171.2505,26.7505L 170,27L 170,28L 171,30L 173,31L 174,31L 175,31L 177,31L 178.2495,30.499L 180.7495,29.499L 182,29L 182,27L 179,26Z" style="fill:rgb(171,171,171);"/>
<path d="M 189,27L 187,26L 186,26L 185,27L 184,28L 184,29L 189,29Z" style="fill:rgb(171,171,171);"/>
<path d="M 200,23L 200,24L 201.7042,24.1479L 205.0751,24.4625L 208.3709,24.8146L 210,25L 212,25L 213,24L 213,22L 211,21L 210,21L 207.3333,21L 206,21L 202,21L 201,22Z" style="fill:rgb(171,171,171);"/>
<path d="M 217,19L 213,19L 212,20L 211,21L 211,22L 213,24L 216,24L 217,23L 217,22L 217,20Z" style="fill:rgb(171,171,171);"/>
<path d="M 231,17L 226,17L 225.3333,18L 224,20L 224,22L 226,22L 227.5913,21.8234L 230.7958,21.5009L 234.0487,21.2514L 237.3443,21.0739L 239,21L 240.3333,20.6667L 243,20L 243,19L 241.6667,18.3333L 239,17L 237,17L 235.7726,17.0362L 233.3556,17.0586Z" style="fill:rgb(171,171,171);"/>
<path d="M 281,18L 279.7495,17.501L 277.2495,16.501L 276,16L 273.3333,15.3333L 272,15L 266,15L 265,17L 265,18L 267,19L 281,19Z" style="fill:rgb(171,171,171);"/>
<path d="M 270,11L 268,12L 268,13L 279,13L 280,12L 280,11Z" style="fill:rgb(171,171,171);"/>
<path d="M 282,16L 281,15L 274,15L 274,16L 276,18L 278,18L 279.3333,17.6667L 282,17Z" style="fill:rgb(171,171,171);"/>
<path d="M 296,16L 298,15L 298,14L 291,14L 291,16Z" style="fill:rgb(171,171,171);"/>
<path d="M 330,14L 301,14L 301,15L 330,15Z" style="fill:rgb(171,171,171);"/>
<path d="M 321,9L 317.4436,8.7782L 313.9833,8.5083L 310.6433,8.1784L 309,8L 305,8L 305,9L 307,10L 308.501,10.2495L 311.501,10.7495L 313,11L 317,11L 318.3333,10.6667L 321,10Z" style="fill:rgb(171,171,171);"/>
<path d="M 327,6L 325.6044,6.2058L 322.8071,6.6093L 320,7L 320,9L 325,9L 326.2495,8.7495L 328.7495,8.2495L 330,8L 333,7L 333,6Z" style="fill:rgb(171,171,171);"/>
<path d="M 320,11L 320,12L 321,13L 330,13L 331.6444,12.8238L 334.9844,12.5034L 338.434,12.2631L 341.963,12.1149L 345.4966,12.0388L 349,12L 349,11L 346,10L 345,10L 343.3524,10.1762L 339.9931,10.4966L 336.4756,10.7368L 332.7908,10.8847L 329.0266,10.9586L 325.3202,10.9882L 321.7496,10.9978Z" style="fill:rgb(171,171,171);"/>
<path d="M 334,6L 334,7L 335,8L 343,8L 343,6Z" style="fill:rgb(171,171,171);"/>
<path d="M 373,11L 373,9L 360,9L 358.3709,9.1854L 355.0751,9.5375L 351.7042,9.8521L 350,10L 350,11Z" style="fill:rgb(171,171,171);"/>
<path d="M 382,7L 378,7L 376,8L 376,9L 379,9L 382,8Z" style="fill:rgb(171,171,171);"/>
<path d="M 417,10L 379,10L 379,11L 417,11Z" style="fill:rgb(171,171,171);"/>
<path d="M 408,5L 381,5L 381,6L 408,6Z" style="fill:rgb(171,171,171);"/>
<path d="M 433,4L 417,4L 417,6L 418.2505,6.2495L 420.7505,6.7495L 422,7L 427,7L 428.3333,6.6667L 431,6L 433,5Z" style="fill:rgb(171,171,171);"/>
<path d="M 447,11L 447,10L 445.2958,9.8521L 441.9249,9.5375L 438.6291,9.1854L 437,9L 428,9L 427,10L 427,11Z" style="fill:rgb(171,171,171);"/>
<path d="M 462,9L 447,9L 447,10L 448.5125,10.2958L 451.525,10.9249L 454.5125,11.6291L 456,12L 457.7042,12.1479L 461.0751,12.4625L 464.3709,12.8146L 466,13L 469.5034,13.0388L 473.037,13.1149L 476.566,13.2631L 480.0156,13.5034L 483.3556,13.8238L 485,14L 488,14L 490,13L 490,12L 488.7495,11.7505L 486.2495,11.2505L 485,11L 483.2485,10.9805L 479.7319,10.9221L 476.2105,10.805L 472.7576,10.5925L 469.4641,10.2615L 466.3701,9.814L 463.4365,9.2817Z" style="fill:rgb(171,171,171);"/>
<path d="M 457,6L 454.1929,5.6093L 451.3956,5.2058L 450,5L 449,5L 448,6L 448,7L 457,7Z" style="fill:rgb(171,171,171);"/>
<path d="M 461,6L 461,8L 464.1831,8.2218L 467.3362,8.4917L 470.4512,8.8216L 472,9L 476,9L 476,7L 475,6Z" style="fill:rgb(171,171,171);"/>
<path d="M 489,7L 476,7L 476,9L 484,9L 485.2495,8.7495L 487.7495,8.2495L 489,8Z" style="fill:rgb(171,171,171);"/>
<path d="M 512,15L 512,13L 509,12L 505,12L 505,14L 507.6667,14.6667L 509,15Z" style="fill:rgb(171,171,171);"/>
<path d="M 515,10L 512,10L 509,11L 509,13L 515,13Z" style="fill:rgb(171,171,171);"/>
<path d="M 524,16L 521.499,15.001L 519,14L 515,14L 515,17L 516.2505,17.2495L 518.7505,17.7495L 520,18L 524,18Z" style="fill:rgb(171,171,171);"/>
<path d="M 533,18L 533,19L 542,19L 542,18L 540.499,17.7505L 537.499,17.2505L 536,17L 534,17Z" style="fill:rgb(171,171,171);"/>
<path d="M 547,16L 545.9871,15.414L 543.9791,14.2227L 542,13L 540,13L 537,14L 536,15L 536,16L 539,17L 547,17Z" style="fill:rgb(171,171,171);"/>
<path d="M 551,16L 547,16L 544,17L 542,18L 541,19L 541,20L 549,20L 550.3333,18L 551,17Z" style="fill:rgb(171,171,171);"/>
<path d="M 551,16L 551,17L 553,19L 561,19L 561,17L 558.1929,16.6093L 555.3956,16.2058L 554,16Z" style="fill:rgb(171,171,171);"/>
<path d="M 590,22L 588,21L 586.499,20.7505L 583.499,20.2505L 582,20L 576,20L 574,21.3333L 573,22L 573,24L 576,25L 580,25L 582,25L 583,25L 585,25L 587.499,23.999L 590,23Z" style="fill:rgb(171,171,171);"/>
<path d="M 590,22L 588.6667,22.3333L 586,23L 585,24L 585,27L 590,27L 590.7495,26.2495L 592.2495,24.7495L 593,24L 594,23L 594,22Z" style="fill:rgb(171,171,171);"/>
<path d="M 601,22L 599,23L 599,24L 600,25L 601,26L 604,26L 606,25L 606,24L 605,22Z" style="fill:rgb(171,171,171);"/>
<path d="M 621,29L 612,29L 612,32L 617,32L 618.998,30.998L 621,30Z" style="fill:rgb(171,171,171);"/>
<path d="M 695,45L 694,44L 692,44L 690.6667,44.3333L 688,45L 688,46L 695,46Z" style="fill:rgb(171,171,171);"/>
<path d="M 744,63L 742.4875,62.7042L 739.475,62.0751L 736.4875,61.3709L 735,61L 734,61L 734,64L 744,64Z" style="fill:rgb(171,171,171);"/>
<path d="M 748,65L 745,64L 744,64L 742,65.3333L 741,66L 741,67L 746,67L 748,66Z" style="fill:rgb(171,171,171);"/>
<path d="M 173,38L 173,36L 168,36L 167,37L 167,38Z" style="fill:rgb(156,156,156);"/>
<path d="M 254,22L 252.7505,22.2505L 250.2505,22.7505L 249,23L 249,25L 252,26L 256,26L 258.6607,25.6251L 261.4836,25.3267L 264.5262,25.1386L 267.7297,25.0443L 271,25L 271,23L 267.7813,22.2187L 264.5885,21.4115L 263,21L 260,21L 258.501,21.2505L 255.501,21.7505Z" style="fill:rgb(156,156,156);"/>
<path d="M 514,18L 511,17L 509.499,16.7505L 506.499,16.2505L 505,16L 503.2742,15.9996L 499.7161,15.9974L 495.9533,15.9882L 492.075,15.9586L 488.2306,15.8847L 484.5264,15.7368L 481.0069,15.4966L 477.6476,15.1762L 476,15L 474.2958,14.8521L 470.9249,14.5375L 467.6291,14.1854L 466,14L 462.4966,13.9612L 458.963,13.8851L 455.434,13.7369L 451.9844,13.4966L 448.6444,13.1762L 447,13L 443.0776,12.9612L 439.2298,12.8851L 435.5263,12.7369L 432.0069,12.4966L 428.6476,12.1762L 427,12L 417,12L 415.3524,12.1762L 411.9931,12.4966L 408.4736,12.7368L 404.7694,12.8847L 400.9172,12.9586L 396.9764,12.9882L 392.9948,12.9974L 388.9992,12.9996L 384.9999,13L 381,13L 377,13L 347,13L 345.4115,13.2058L 343.8151,13.4076L 340.6056,13.8028L 337.3487,14.1743L 333.9931,14.4966L 330.4737,14.7368L 326.7694,14.8847L 322.918,14.959L 318.9815,14.9908L 317,15L 314.1933,15.408L 311.3104,15.8042L 308.2592,16.1757L 304.9807,16.497L 301.4737,16.7368L 297.7694,16.8847L 293.918,16.959L 289.9815,16.9908L 288,17L 286.3524,17.3524L 282.9941,17.9931L 279.4854,18.4736L 275.8348,18.7694L 272.1439,18.9173L 268.526,18.9772L 265,19L 265,20L 266,22L 340,22L 341.0235,21.2456L 343.1358,19.834L 345.4389,18.6815L 348.0318,17.8678L 350.9422,17.3789L 354.0936,17.1341L 357.3566,17.0299L 359,17L 362.1198,16.8704L 365.2424,16.903L 368.358,17.1881L 371.456,17.6993L 373,18L 379,18L 382.3272,17.6636L 385.7665,17.3834L 389.3777,17.1896L 393.1516,17.0809L 397.0296,17.0384L 400.9316,17.0486L 404.7723,17.1168L 408.4741,17.2634L 411.9932,17.5035L 415.3524,17.8238L 417,18L 427,18L 429.8697,17.5351L 431.2999,17.3701L 434.2269,17.1268L 437.4343,17.0268L 441.0264,17.0026L 444.6704,17.0152L 447.8813,17.129L 450.4949,17.539L 452.6274,18.4792L 454.4165,20.0321L 456,22L 515,22L 515,19Z" style="fill:rgb(156,156,156);"/>
<path d="M 318,7L 312,7L 312,8L 318,8Z" style="fill:rgb(156,156,156);"/>
<path d="M 372,4L 366,4L 366,5L 372,5Z" style="fill:rgb(156,156,156);"/>
<path d="M 528,19L 519,19L 519,20L 520.2058,20.3907L 522.6093,21.1849L 525,22L 527,22L 528,22L 529,22L 529,20Z" style="fill:rgb(156,156,156);"/>
<path d="M 524,23L 524,25L 534,25L 535.1929,24.5964L 537.5885,23.7942L 540,23L 540,21L 534,21L 532.3709,21.3709L 529.0751,22.0751L 525.7042,22.7042Z" style="fill:rgb(156,156,156);"/>
<path d="M 547,21L 545,21L 544,22L 544,24L 545.501,24.2495L 548.501,24.7495L 550,25L 556,25L 556,23L 554.4875,22.7042L 551.475,22.0751L 548.4875,21.3709Z" style="fill:rgb(156,156,156);"/>
<path d="M 140,44L 136,44L 136,46L 138,46L 140,45Z" style="fill:rgb(158,158,158);"/>
<path d="M 200,36L 204,36L 204,34L 200,34Z" style="fill:rgb(158,158,158);"/>
<path d="M 214,28L 214,30L 223,30L 223,28Z" style="fill:rgb(158,158,158);"/>
<path d="M 233,25L 229,25L 228,26L 228,27L 233,27Z" style="fill:rgb(158,158,158);"/>
<path d="M 243,26L 243,27L 245,28L 252,28L 252,25L 249,25L 246,25.501Z" style="fill:rgb(158,158,158);"/>
<path d="M 271,26L 271,27L 276,27L 277,26L 277,25L 275.7495,24.5L 273.2495,23.5L 272,23L 271,23L 271,25Z" style="fill:rgb(158,158,158);"/>
<path d="M 528,28L 529.6198,27.6475L 532.8886,27.0061L 536.2195,26.5212L 539.5998,26.207L 543,26L 543,24L 540,23L 536,23L 534.7888,23.1846L 533.5925,23.3014L 531.2466,23.3477L 529.0198,22.9499L 526.9363,22.0447L 524.965,20.7336L 524,20L 522.8146,19.5375L 520.4625,18.5751L 518.1479,17.5375L 517,17L 515,17L 513.9396,17.8277L 511.6942,19.3523L 509.1098,20.5393L 506.0764,21.313L 502.623,21.7298L 498.8744,21.9128L 494.9824,21.9774L 491.1027,21.9955L 489.2228,21.9974L 487.3614,21.9982L 485.5001,21.9979L 483.627,21.9952L 481.7389,21.9872L 477.943,21.9489L 474.1588,21.8309L 470.5384,21.5387L 467.3025,20.9494L 464.6485,19.9688L 462.618,18.6044L 461,17L 459.7495,16.7505L 457.2495,16.2505L 456,16L 447,16L 445.3709,16.1854L 442.0751,16.5375L 438.7042,16.8521L 437,17L 435.3709,17.167L 432.0751,17.4556L 428.7042,17.6215L 425.2958,17.6215L 421.9249,17.4556L 418.6291,17.167L 417,17L 403,17L 399.0004,17L 395.0053,16.9997L 391.0355,16.9968L 387.1503,16.9823L 383.4569,16.9313L 380.0725,16.8024L 377.048,16.5578L 374.3126,16.2016L 373,16L 359,16L 357.5358,16.1695L 354.6232,16.4804L 351.7638,16.7196L 348.9944,16.875L 346.318,16.9662L 345,17L 343.7505,17.2505L 341.2505,17.7505L 340,18L 337.3455,19.3455L 334.4668,20.4668L 331.243,21.243L 327.6866,21.6866L 323.8936,21.8936L 319.9712,21.9712L 315.994,21.994L 311.9991,21.9991L 307.9999,21.9999L 304,22L 300,22L 274,22L 274,23L 277.2187,23.3907L 280.4115,23.7942L 282,24L 300,24L 304,24L 307.9999,24.0001L 311.9991,24.0009L 315.994,24.006L 319.9712,24.0288L 323.8936,24.1064L 327.6866,24.3134L 331.243,24.757L 334.4668,25.5332L 337.3455,26.6545L 340,28L 456,28L 458.6545,26.6545L 461.5332,25.5332L 464.757,24.757L 468.3134,24.3134L 472.1064,24.1064L 476.0132,24.0288L 479.8966,24.006L 483.6571,24.001L 487.3429,24.001L 491.1034,24.006L 494.9868,24.0288L 498.8936,24.1064L 502.6866,24.3134L 506.243,24.757L 509.4668,25.5332L 512.3455,26.6545L 515,28ZM 364.875,17.5625L 365,18Z" style="fill:rgb(158,158,158);"/>
<path d="M 284,17L 281,18L 281,19L 288,19L 288,17Z" style="fill:rgb(158,158,158);"/>
<path d="M 310,16L 301,16L 301,17L 310,17Z" style="fill:rgb(158,158,158);"/>
<path d="M 339,14L 330,14L 330,15L 339,15Z" style="fill:rgb(158,158,158);"/>
<path d="M 417,12L 379,12L 379,13L 417,13Z" style="fill:rgb(158,158,158);"/>
<path d="M 437,16L 427,16L 427,17L 437,17Z" style="fill:rgb(158,158,158);"/>
<path d="M 492,15L 476,15L 476,16L 492,16Z" style="fill:rgb(158,158,158);"/>
<path d="M 545,21L 540,21L 540,24L 544,24L 545,22Z" style="fill:rgb(158,158,158);"/>
<path d="M 556,22L 547,22L 547,23L 556,23Z" style="fill:rgb(158,158,158);"/>
<path d="M 559,26L 559,28L 563,28L 565,27L 565,26Z" style="fill:rgb(158,158,158);"/>
<path d="M 584,27L 573,27L 573,28L 584,28Z" style="fill:rgb(158,158,158);"/>
<path d="M 597,31L 597,29L 592,29L 592,31Z" style="fill:rgb(158,158,158);"/>
<path d="M 605,30L 603.499,29.7505L 600.499,29.2505L 599,29L 597,29L 597,31L 599.6667,31.6667L 601,32L 605,32Z" style="fill:rgb(158,158,158);"/>
<path d="M 615.7495,32.7505L 613.2495,32.2505L 612,32L 611,32L 611,34L 612,35L 618,35L 618,34L 617,33Z" style="fill:rgb(158,158,158);"/>
<path d="M 194,34L 194,32L 189,32L 187.6667,32.3333L 185,33L 182,34L 182,35L 183,36L 185,36L 186.499,35.7495L 189.499,35.2495L 191,35Z" style="fill:rgb(159,159,159);"/>
<path d="M 206,31L 204,30L 199,30L 197.6667,30.3333L 195,31L 194,32L 194,34L 195,34L 197.5668,33.6266L 200.1004,33.3263L 202.5752,33.1277L 205,33L 206,32Z" style="fill:rgb(159,159,159);"/>
<path d="M 214,28L 209,28L 207.7505,28.501L 205.2505,29.501L 204,30L 204,31L 204,33L 204,34L 211,34L 212.4971,31.9946L 214,30Z" style="fill:rgb(159,159,159);"/>
<path d="M 223,26L 220,26L 218.501,26.2505L 215.501,26.7505L 214,27L 214,28L 223,28Z" style="fill:rgb(159,159,159);"/>
<path d="M 561,27.25L 561,26ZM 259.9189,23.7604L 257,24L 254.3547,24.9546L 251.6166,25.8344L 248.7353,26.5481L 245.7232,26.9941L 242.6422,27.0945L 239.5614,26.8393L 236.5143,26.3136L 235,26L 233,26L 230.5005,26.0015L 228,26L 223,26L 220.5804,27.3734L 218.0462,28.5731L 215.3698,29.5564L 214,30L 214,34L 223,34L 225.6545,32.9909L 228.5332,32.1499L 231.757,31.5677L 235.3134,31.2351L 239.1064,31.0798L 243.0288,31.0216L 247.006,31.0045L 251.0009,31.0007L 255.0001,31.0001L 259,31L 263,31L 533,31L 537,31L 540.9999,31.0001L 544.9991,31.0007L 548.994,31.0045L 552.9712,31.0216L 556.8936,31.0798L 560.6866,31.2351L 564.243,31.5677L 567.4668,32.1499L 570.3455,32.9909L 573,34L 576.5034,34.0388L 580.037,34.1149L 583.566,34.2631L 587.0156,34.5034L 590.3556,34.8238L 592,35L 596,35L 597.3333,34.6667L 600,34L 600,33L 598.3444,31.0705L 596.7656,29.0436L 596,28L 592.8169,27.7782L 589.6638,27.5083L 586.5488,27.1784L 585,27L 582.6366,26.7323L 580.1961,26.3284L 577.6408,25.7322L 575,25L 573.499,24.7505L 570.499,24.2505L 569,24L 567.499,23.7505L 564.499,23.2505L 563,23L 556,23L 554.6712,23.1938L 551.9545,23.5394L 549.0965,23.7842L 546.0919,23.9238L 543,24L 541.3802,24.3525L 538.1114,24.9939L 534.7805,25.4788L 531.4002,25.793L 528,26L 525.1503,26.3882L 522.3804,26.4828L 519.7612,26.0921L 517.3192,25.2033L 515,24L 456,24L 453.3455,25.3455L 450.4668,26.4668L 447.243,27.243L 443.6866,27.6866L 439.8936,27.8936L 435.9712,27.9712L 431.994,27.994L 427.9991,27.9991L 423.9999,27.9999L 420,28L 416,28L 380,28L 376,28L 372.0001,27.9999L 368.0009,27.9991L 364.006,27.994L 360.0288,27.9712L 356.1064,27.8936L 352.3134,27.6866L 348.757,27.243L 345.5332,26.4668L 342.6545,25.3455L 340,24L 322,24L 318,24L 314.0001,24L 310.0008,23.9996L 306.0052,23.9974L 302.0236,23.9882L 298.0828,23.9586L 294.2306,23.8847L 290.5264,23.7368L 288.7666,23.6167L 285.3282,23.3359L 282.0185,22.9908L 278.7822,22.6089L 275.5885,22.2058L 274,22L 265,22L 263.4216,22.6611ZM 279.875,26.875L 280.5,28Z" style="fill:rgb(159,159,159);"/>
<path d="M 245,27L 243,25L 240,24L 233,24L 233,26L 235,28L 245,28Z" style="fill:rgb(159,159,159);"/>
<path d="M 249,23L 244,23L 243,23L 240,23L 240,25L 243,26L 244.2505,26.2495L 246.7505,26.7495L 248,27L 250,27L 250,26Z" style="fill:rgb(159,159,159);"/>
<path d="M 340,16L 340,17L 341.501,17.2495L 344.501,17.7495L 346,18L 350,18L 350,16Z" style="fill:rgb(159,159,159);"/>
<path d="M 369,17L 359,17L 359,18L 369,18Z" style="fill:rgb(159,159,159);"/>
<path d="M 379,12L 370,12L 370,13L 379,13Z" style="fill:rgb(159,159,159);"/>
<path d="M 437,17L 427,17L 427,18L 437,18Z" style="fill:rgb(159,159,159);"/>
<path d="M 459,13L 447,13L 447,14L 459,14Z" style="fill:rgb(159,159,159);"/>
<path d="M 475,14L 466,14L 466,15L 475,15Z" style="fill:rgb(159,159,159);"/>
<path d="M 520,17L 517,17L 517,19L 524,19L 524,18L 521.3333,17.3333Z" style="fill:rgb(159,159,159);"/>
<path d="M 529,20L 526.501,21L 524,22L 524,23L 534,23L 535.3333,22.3333L 538,21L 538,20Z" style="fill:rgb(159,159,159);"/>
<path d="M 611,32L 609.7495,31.501L 607.2495,30.501L 606,30L 605,30L 602.4334,30.3771L 599.7668,30.7105L 597,31L 597,32L 598.0178,32.7884L 600.0289,34.3812L 602,36L 603,36L 604.4875,35.8146L 607.475,35.4625L 610.4875,35.1479L 612,35L 612,34Z" style="fill:rgb(159,159,159);"/>
<path d="M 102,53L 97,53L 97,55L 101,55L 102,54Z" style="fill:rgb(164,164,164);"/>
<path d="M 106,51L 106,52L 107,53L 109,54L 110,54L 111,53L 111,52L 110,51Z" style="fill:rgb(164,164,164);"/>
<path d="M 123,46L 121,47L 120.001,47.501L 118.001,48.501L 117,49L 117,51L 136,51L 136,46L 133.3333,45.3333L 132,45L 131,45L 128.4334,45.3771L 125.7668,45.7105Z" style="fill:rgb(164,164,164);"/>
<path d="M 152,47L 143,47L 143,48L 152,48Z" style="fill:rgb(164,164,164);"/>
<path d="M 145,44L 145,46L 149,46L 149,45L 148,44Z" style="fill:rgb(164,164,164);"/>
<path d="M 165,46L 152,46L 152,47L 165,47Z" style="fill:rgb(164,164,164);"/>
<path d="M 175,47L 165,47L 165,48L 175,48Z" style="fill:rgb(164,164,164);"/>
<path d="M 185,33L 174,33L 171.501,34L 169,35L 169,36L 174,36L 175.2895,35.6774L 177.9193,35.0748L 180.6702,34.5748L 183.5405,34.1774L 185,34Z" style="fill:rgb(164,164,164);"/>
<path d="M 175,44L 175,47L 631,47L 631,44Z" style="fill:rgb(164,164,164);"/>
<path d="M 214,36L 209,36L 209,37L 211,38L 213,38L 214,37Z" style="fill:rgb(164,164,164);"/>
<path d="M 229,25L 225.7813,24.6093L 222.5885,24.2058L 221,24L 220,24L 219,25L 219,26L 229,26Z" style="fill:rgb(164,164,164);"/>
<path d="M 279,10L 279,11L 286,11L 286,10Z" style="fill:rgb(164,164,164);"/>
<path d="M 284,17L 278,17L 278,18L 284,18Z" style="fill:rgb(164,164,164);"/>
<path d="M 317,15L 301,15L 301,16L 317,16Z" style="fill:rgb(164,164,164);"/>
<path d="M 456,12L 447,12L 447,13L 456,13Z" style="fill:rgb(164,164,164);"/>
<path d="M 503,15L 492,15L 492,16L 503,16Z" style="fill:rgb(164,164,164);"/>
<path d="M 530,18L 524,18L 524,19L 530,19Z" style="fill:rgb(164,164,164);"/>
<path d="M 551,21L 549,20L 547,20L 547,22L 551,22Z" style="fill:rgb(164,164,164);"/>
<path d="M 556,22L 556,23L 563,23L 563,22Z" style="fill:rgb(164,164,164);"/>
<path d="M 569,23L 563,23L 563,24L 569,24Z" style="fill:rgb(164,164,164);"/>
<path d="M 606,29L 599,29L 599,30L 606,30Z" style="fill:rgb(164,164,164);"/>
<path d="M 640,47L 631,47L 631,48L 640,48Z" style="fill:rgb(164,164,164);"/>
<path d="M 646,43L 641,43L 641,46L 644,46L 646,44Z" style="fill:rgb(164,164,164);"/>
<path d="M 657,43L 655,43L 655,45L 660,45L 660,44Z" style="fill:rgb(164,164,164);"/>
<path d="M 679.3333,47.3333L 678,47L 675,47L 672,47L 666,47L 666,48L 668.002,49.4985L 670,51L 680,51L 682,50L 682,48Z" style="fill:rgb(164,164,164);"/>
<path d="M 691,50L 688.6229,49.0673L 686.2895,48.0673L 684,47L 683,47L 682,48L 682,51L 684.6479,51.6354L 687.3146,52.302L 690,53L 691,53L 692,52L 692,51Z" style="fill:rgb(164,164,164);"/>
<path d="M 699,52L 691,52L 690,53L 690,55L 692,55L 694.7813,54.1849L 697.5885,53.3907L 699,53Z" style="fill:rgb(164,164,164);"/>
<path d="M 107,52L 103,52L 101.8071,52.6093L 99.4115,53.8151L 97,55L 97,56L 103,56L 104.3333,55.3333L 107,54Z" style="fill:rgb(165,165,165);"/>
<path d="M 690,52L 689,52L 686.5462,52.0278L 684.0632,51.8929L 681.5432,51.5278L 680.2716,51.2639L 677.6302,50.6673L 676.292,50.2986L 674.9842,49.8859L 672.4102,48.9677L 669.8723,47.8713L 667.3004,46.6402L 666,46L 660,46L 657,46L 640,46L 637.4002,46.4649L 636.1109,46.6299L 633.454,46.8732L 630.4515,46.9732L 626.9083,46.9975L 623,47L 175,47L 172.1303,47.1216L 169.2699,47.1516L 166.4215,47.0675L 165,47L 161.6595,46.9973L 158.1207,46.9778L 154.6199,46.8918L 151.527,46.6346L 148.9742,46.0775L 146.8668,45.1636L 145,44L 142,44L 140.501,44.501L 137.501,45.501L 136,46L 134.9934,46.8169L 132.8226,48.3226L 130.2586,49.4993L 127.2526,50.2756L 123.9307,50.7052L 120.4755,50.9059L 117,51L 117,53L 120.4806,53.1005L 123.9543,53.3125L 127.3354,53.7569L 130.4892,54.5332L 133.3489,55.6545L 136,57L 670,57L 671.0739,56.4725L 673.261,55.584L 675.556,55.1142L 677.9989,55.1329L 680.586,55.5514L 683.2718,56.2195L 686,57L 690,57L 692,56L 692,55L 691.3333,54Z" style="fill:rgb(165,165,165);"/>
<path d="M 131,44L 129,44L 127,45L 127,47L 131,47Z" style="fill:rgb(165,165,165);"/>
<path d="M 239,15L 239,16L 241.6667,16.6667L 243,17L 244,17L 245,16L 245,15Z" style="fill:rgb(165,165,165);"/>
<path d="M 290,9L 290,10L 291,11L 296,11L 297,10L 297,9Z" style="fill:rgb(165,165,165);"/>
<path d="M 364,9L 364,7L 359,7L 359,8L 360,9Z" style="fill:rgb(165,165,165);"/>
<path d="M 491,14L 485,14L 485,15L 491,15Z" style="fill:rgb(165,165,165);"/>
<path d="M 576,24L 574.499,23.7505L 571.499,23.2505L 570,23L 569,23L 569,25L 576,25Z" style="fill:rgb(165,165,165);"/>
<path d="M 575,25L 575,26L 582,26L 582,25Z" style="fill:rgb(165,165,165);"/>
<path d="M 621,32L 612,32L 612,33L 621,33Z" style="fill:rgb(165,165,165);"/>
<path d="M 625,34L 625,36L 633,36L 633,35L 630,34Z" style="fill:rgb(165,165,165);"/>
<path d="M 670,44L 670,46L 675,46L 675,45L 672,44Z" style="fill:rgb(165,165,165);"/>
<path d="M 674,46L 674,47L 678,47L 679,46L 679,45L 675,45Z" style="fill:rgb(165,165,165);"/>
<path d="M 678,46L 678,48L 683,48L 683,47L 682,46Z" style="fill:rgb(165,165,165);"/>
<path d="M 685,48L 684,49L 684,50L 691,50L 691,49L 689,48Z" style="fill:rgb(165,165,165);"/>
<path d="M 699,51L 692,51L 692,52L 699,52Z" style="fill:rgb(165,165,165);"/>
<path d="M 704,53L 701,53L 699.6667,53.6667L 697,55L 697,56L 699,57L 703,57L 704,56Z" style="fill:rgb(165,165,165);"/>
<path d="M 713,57L 713,55L 705,55L 705,57L 710,57L 711,57Z" style="fill:rgb(165,165,165);"/>
<path d="M 68,62L 66,62L 64.6667,62.6667L 62,64L 62,67L 63,67L 66,66L 68,65Z" style="fill:rgb(166,166,166);"/>
<path d="M 73,63L 73,66L 74,66L 75.3333,65.6667L 78,65L 78,63Z" style="fill:rgb(166,166,166);"/>
<path d="M 80,62L 81,62L 82.499,61.7495L 85.499,61.2495L 87,61L 88.4985,58.998L 90,57L 90,56L 85,56L 83.8584,56.5056L 81.5501,57.5111L 79.1917,58.5056L 78,59L 78,61Z" style="fill:rgb(166,166,166);"/>
<path d="M 82,63L 82,64L 83,65L 87,65L 87,63Z" style="fill:rgb(166,166,166);"/>
<path d="M 701,53L 693,53L 690.6875,53.7597L 688.3082,54.2632L 685.8076,54.3534L 683.1636,54.0187L 680.4028,53.3765L 679,53L 670,53L 667.3455,54.3455L 664.4668,55.4668L 661.243,56.243L 657.6866,56.6866L 653.8936,56.8936L 649.9712,56.9712L 645.994,56.994L 641.9991,56.9991L 637.9999,56.9999L 634,57L 630,57L 176,57L 172,57L 168.0001,56.9999L 164.0009,56.9991L 160.006,56.994L 156.0288,56.9712L 152.1064,56.8936L 148.3134,56.6866L 144.757,56.243L 141.5332,55.4668L 138.6545,54.3455L 136,53L 132.0228,52.9886L 128.0827,52.9587L 124.2306,52.8847L 120.5264,52.7368L 117.0069,52.4966L 113.6476,52.1762L 112,52L 111,52L 108.3556,52.6304L 105.7379,53.2012L 103.171,53.6432L 100.6668,53.9025L 99.4411,53.9468L 96.8577,53.9956L 94,54L 92.6029,54.6044L 89.8047,55.8071L 87,57L 87,60L 88,61L 678,61L 682,61L 685.9999,61L 689.9992,61.0004L 693.9948,61.0026L 697.9764,61.0118L 701.9172,61.0414L 705.7694,61.1153L 709.4736,61.2632L 712.9931,61.5034L 716.3524,61.8238L 718,62L 725,62L 725,59L 722.6385,58.0328L 720.3052,57.0328L 718,56L 714.9723,55.8389L 712.0913,55.5311L 709.4714,54.957L 707.1402,54.0809L 705,53L 704,53Z" style="fill:rgb(166,166,166);"/>
<path d="M 117,47L 116,47L 114.501,47.501L 111.501,48.501L 110,49L 110,52L 112,53L 117,53Z" style="fill:rgb(166,166,166);"/>
<path d="M 214,27L 207,27L 207,28L 214,28Z" style="fill:rgb(166,166,166);"/>
<path d="M 258,15L 258,16L 264,16L 264,15Z" style="fill:rgb(166,166,166);"/>
<path d="M 427,11L 379,11L 379,12L 427,12Z" style="fill:rgb(166,166,166);"/>
<path d="M 417,6L 388,6L 388,7L 417,7Z" style="fill:rgb(166,166,166);"/>
<path d="M 457,6L 455,7L 454,8L 454,9L 460,9L 460,6Z" style="fill:rgb(166,166,166);"/>
<path d="M 456,12L 456,13L 466,13L 466,12Z" style="fill:rgb(166,166,166);"/>
<path d="M 475,13L 466,13L 466,14L 475,14Z" style="fill:rgb(166,166,166);"/>
<path d="M 496,8L 484,8L 484,9L 485,10L 488,10L 490.6667,10L 492,10L 495,10L 496,9Z" style="fill:rgb(166,166,166);"/>
<path d="M 495,10L 495,12L 499,12L 499,11L 498,10Z" style="fill:rgb(166,166,166);"/>
<path d="M 511,18L 515,18L 515,15L 513,15L 511.7505,15.2505L 509.2505,15.7505L 508,16L 508,17Z" style="fill:rgb(166,166,166);"/>
<path d="M 541,19L 534,19L 534,20L 541,20Z" style="fill:rgb(166,166,166);"/>
<path d="M 548,15L 545.499,14.001L 543,13L 542,13L 542,16L 548,16Z" style="fill:rgb(166,166,166);"/>
<path d="M 633,36L 633,37L 640,37L 640,36Z" style="fill:rgb(166,166,166);"/>
<path d="M 646,38L 646,40L 651,40L 651,39L 649,38Z" style="fill:rgb(166,166,166);"/>
<path d="M 663,43L 663,44L 669,44L 669,43L 667,42L 666,42Z" style="fill:rgb(166,166,166);"/>
<path d="M 687,51L 685.7495,50.7505L 683.2495,50.2505L 682,50L 680,50L 679,51L 679,52L 680,53L 681.501,53.2495L 684.501,53.7495L 686,54L 689,54L 689,52Z" style="fill:rgb(166,166,166);"/>
<path d="M 721,65L 718,65L 718,66L 719,67L 725,67L 725,66L 722.3333,65.3333Z" style="fill:rgb(166,166,166);"/>
<path d="M 796,88L 9,88L 8,89L 8,91L 10,92L 796,92L 796,90L 50,90L 48,90L 46,90L 44.0005,89.9998L 42.0061,89.9971L 40.0521,89.9784L 38.5767,89.7223L 38.5551,89.2351L 42.0045,89.0019L 46,89L 50,89L 796,89Z" style="fill:rgb(175,175,175);"/>
<path d="M 796,102L 797,102L 798,101L 798,93L 10,93L 10,94L 756,94L 760,94L 763.9999,94.0001L 767.9991,94.0009L 771.994,94.006L 775.9703,94.0297L 779.8876,94.1124L 783.6578,94.3422L 787.1366,94.8634L 790.1533,95.8467L 792.5885,97.4115L 794.4668,99.5332Z" style="fill:rgb(175,175,175);"/>
<path d="M 133,37L 126,37L 126,41L 131,41L 132,40L 133,39Z" style="fill:rgb(175,175,175);"/>
<path d="M 149,36L 146,36L 146,38L 147,39L 155,39L 155,38L 152,37Z" style="fill:rgb(175,175,175);"/>
<path d="M 158,38L 158,37L 157,36L 153,36L 152,37L 152,38Z" style="fill:rgb(175,175,175);"/>
<path d="M 186,24L 184.7505,24.2505L 182.2505,24.7505L 181,25L 179,26L 179,27L 181.6667,27.6667L 183,28L 185,28L 187,26.6667L 188,26L 188,24Z" style="fill:rgb(175,175,175);"/>
<path d="M 238,23L 238,21L 232,21L 232,22L 233,23Z" style="fill:rgb(175,175,175);"/>
<path d="M 354,5L 354,6L 369,6L 369,5Z" style="fill:rgb(175,175,175);"/>
<path d="M 496,8L 495,9L 495,10L 501,10L 501,8Z" style="fill:rgb(175,175,175);"/>
<path d="M 543,13L 543,14L 544,15L 546.6667,15.6667L 548,16L 549,16L 549,14L 547,13Z" style="fill:rgb(175,175,175);"/>
<path d="M 618,27L 616.7495,26.5L 614.2495,25.5L 613,25L 612,25L 611,26L 611,27L 612,29L 617,29L 618,28Z" style="fill:rgb(175,175,175);"/>
<path d="M 626,34L 631,34L 633,33L 633,31L 631.499,30.7505L 628.499,30.2505L 627,30L 625,30L 624,31L 624,33Z" style="fill:rgb(175,175,175);"/>
<path d="M 640,36L 641,35L 641,34L 640,31L 637,31L 636,31L 634,31L 633,31L 631,33L 630,34L 630,35L 633,36Z" style="fill:rgb(175,175,175);"/>
<path d="M 657,37L 656,37L 655,37L 653,37L 653,39L 654,40L 655,40L 657,39Z" style="fill:rgb(175,175,175);"/>
<path d="M 675,40L 672.3333,38.6667L 671,38L 668.3333,37.3333L 667,37L 664,37L 662,38L 661,39L 661,40L 664.1113,40.4444L 667.0989,40.9505L 669.8931,41.5534L 672.5019,42.249L 675,43L 677,43L 677,42L 676,41Z" style="fill:rgb(175,175,175);"/>
<path d="M 683,45L 682,44L 681,43L 677.999,42.501L 675,42L 673,42L 672,44L 672,45L 674.8071,45.3907L 677.6044,45.7942L 679,46L 683,46Z" style="fill:rgb(175,175,175);"/>
<path d="M 683,46L 685,46L 686,44L 686,41L 685,41L 683.6667,41.6667L 681,43L 681,44L 682,45Z" style="fill:rgb(175,175,175);"/>
<path d="M 704,45L 701,44L 699,44L 699,49L 700,49L 703,48L 704,46Z" style="fill:rgb(175,175,175);"/>
<path d="M 726,55L 726,56L 728,57L 730,57L 731,56L 731,55L 730,54L 728,54Z" style="fill:rgb(175,175,175);"/>
<path d="M 783,84L 783,86L 786,86L 786,84Z" style="fill:rgb(175,175,175);"/>
<path d="M 798,92L 800,92L 800,85L 799,85L 798.7505,86.2505L 798.2505,88.7505L 798,90Z" style="fill:rgb(175,175,175);"/>
<path d="M 9,96L 8,96L 6,98L 6,106L 8,106L 8.6667,103.3333L 9,102Z" style="fill:rgb(176,176,176);"/>
<path d="M 8,94L 8,87L 5,87L 5,94Z" style="fill:rgb(176,176,176);"/>
<path d="M 9,96L 9,99L 796,99L 796,96Z" style="fill:rgb(176,176,176);"/>
<path d="M 796,89L 10,89L 10,90L 796,90Z" style="fill:rgb(176,176,176);"/>
<path d="M 83,55L 81.499,54.7505L 78.499,54.2505L 77,54L 72,54L 72,55L 73,56L 75.0015,57.498L 77,59L 83,59Z" style="fill:rgb(176,176,176);"/>
<path d="M 110,50L 108.2958,49.8521L 104.9249,49.5375L 101.6291,49.1854L 100,49L 98,49L 97,50L 97,52L 100,52L 101.6291,51.8146L 104.9249,51.4625L 108.2958,51.1479L 110,51Z" style="fill:rgb(176,176,176);"/>
<path d="M 113.3333,42.6667L 113,44L 113,45L 116,46L 117,46L 118,45L 119,44L 119,41L 118,40L 114,40Z" style="fill:rgb(176,176,176);"/>
<path d="M 119,45L 121,45L 122.2495,44.7495L 124.7495,44.2495L 126,44L 126,43L 123.3333,41.6667L 122,41L 119,41Z" style="fill:rgb(176,176,176);"/>
<path d="M 131,36L 131,37L 131,38L 131,40L 131,41L 132.573,41.0004L 135.286,41.0383L 137.5513,41.2009L 139.7865,41.5388L 142,42L 145,42L 146.3333,41.6667L 149,41L 149,40L 146.6536,38.9514L 144.3637,37.7859L 142.1536,36.4529L 140,35L 134,35Z" style="fill:rgb(176,176,176);"/>
<path d="M 144,38L 144.9871,37.1849L 146.9791,35.5756L 149,34L 149,33L 143,33L 143,38Z" style="fill:rgb(176,176,176);"/>
<path d="M 625,29L 622,29L 621,30L 621,32L 624,32L 625,31Z" style="fill:rgb(176,176,176);"/>
<path d="M 650,37L 650,36L 650,35L 647,34L 642,34L 640,36L 640,37L 642,38L 650,38Z" style="fill:rgb(176,176,176);"/>
<path d="M 669,44L 673,44L 673,41L 670.3333,40.3333L 669,40L 665.7813,39.6093L 662.5885,39.2058L 661,39L 660,39L 660,42L 661.33,42.2458L 663.9566,42.7675L 666.5083,43.3567Z" style="fill:rgb(176,176,176);"/>
<path d="M 681,39L 679,38L 671,38L 671,40L 673.3615,41.2911L 675.6948,42.6244L 678,44L 679,44L 680.2495,43.7495L 682.7495,43.2495L 684,43L 684,42L 683,41Z" style="fill:rgb(176,176,176);"/>
<path d="M 713,49L 711.7495,48.7505L 709.2495,48.2505L 708,48L 701,48L 701,49L 704,50L 705.2505,50.2495L 707.7505,50.7495L 709,51L 712,51L 713,50Z" style="fill:rgb(176,176,176);"/>
<path d="M 800,96L 800,92L 798,92L 798,103L 799,103L 799.3907,100.1929L 799.7942,97.3956Z" style="fill:rgb(176,176,176);"/>
<path d="M 36.0008,96.0008L 40.0001,96.0001L 44,96L 48,96L 796,96L 796,94L 2,94L 2,98L 2.6667,99L 4,101L 5,101L 6.2487,100.2629L 8.8475,98.8805L 11.7112,97.7439L 14.9107,96.9308L 18.4227,96.4305L 22.1678,96.1693L 26.0555,96.0553L 30.0148,96.0146L 34.003,96.003Z" style="fill:rgb(177,177,177);"/>
<path d="M 2,106L 4,106L 4,98L 2,98Z" style="fill:rgb(177,177,177);"/>
<path d="M 798,101L 796,99L 9,99L 8,102L 8,105L 9,106L 369,106L 373,106L 376.9999,106L 380.9992,106.0004L 384.9948,106.0026L 388.9764,106.0118L 392.9172,106.0414L 396.7694,106.1153L 400.4736,106.2632L 403.9931,106.5034L 407.3524,106.8238L 409,107L 413,107L 414.49,106.8238L 417.5559,106.5034L 420.8401,106.2632L 424.3841,106.1153L 428.1452,106.0414L 432.044,106.0118L 436.0103,106.0026L 440.0017,106.0004L 444.0002,106L 448,106L 452,106L 797,106L 798,103Z" style="fill:rgb(177,177,177);"/>
<path d="M 101,45L 96,45L 95.0018,45.7315L 93.004,47.1815L 91.0032,48.6024L 89,50L 88,52L 88,53L 91,54L 97,54L 98.3333,53.6667L 101,53L 101.1755,51.7603L 101.5604,49.3358L 102,47L 102,46Z" style="fill:rgb(177,177,177);"/>
<path d="M 105,44L 103.6667,44.3333L 101,45L 100,45.6667L 98,47L 98,49L 100,50L 106,50L 106.9871,49.3907L 108.9791,48.1849L 111,47L 111,46L 108.3333,44.6667L 107,44Z" style="fill:rgb(177,177,177);"/>
<path d="M 116,49L 116,47L 113.3333,46.3333L 112,46L 111,46L 110,47L 110,49Z" style="fill:rgb(177,177,177);"/>
<path d="M 140,44L 143,43L 143,42L 142,41L 140,40L 133,40L 131.5125,40.1854L 128.525,40.5375L 125.5125,40.8521L 124,41L 124,42L 126,44Z" style="fill:rgb(177,177,177);"/>
<path d="M 695,43L 694,42L 689,42L 686,43L 684.0002,44.501L 682,46L 682,47L 684,48L 686,48L 688.4871,46.8035L 691.0377,45.6476L 693.6675,44.5418L 695,44Z" style="fill:rgb(177,177,177);"/>
<path d="M 699,50L 699,44L 698,44L 695,45L 694.2082,45.8071L 692.6133,47.4115L 691,49L 691,50Z" style="fill:rgb(177,177,177);"/>
<path d="M 706,53L 708,51.6667L 709,51L 709,50L 706.3521,49.3646L 703.6854,48.698L 701,48L 700,48L 699,49L 698,50L 698,51L 699,53Z" style="fill:rgb(177,177,177);"/>
<path d="M 745,64L 747,63L 747,61L 746.3333,60L 745,58L 744,58L 742.6667,58.3333L 740,59L 740,61L 741.0001,61.7495L 743.0001,63.2495L 744,64Z" style="fill:rgb(177,177,177);"/>
<path d="M 798,103L 797,103L 796,106L 796,112L 797,112L 798,110Z" style="fill:rgb(177,177,177);"/>
<path d="M 3,90L 2,89L 1,88L 0,88L 0,93L 1,94L 3,94Z" style="fill:rgb(179,179,179);"/>
<path d="M 2,101L 2,94L 1,93L 0,93L 0,95L 0.2505,96.499L 0.7505,99.499L 1,101Z" style="fill:rgb(179,179,179);"/>
<path d="M 1,109L 1.501,110.2495L 2.501,112.7495L 3,114L 5,114L 5.2495,112.7495L 5.7495,110.2495L 6,109L 6,99L 5,99L 4.468,100.0123L 3.3747,102.03L 2.2145,104.0264L 1,106Z" style="fill:rgb(179,179,179);"/>
<path d="M 411,107L 409,106L 49,106L 45,106L 41.0001,106L 37.0008,105.9996L 33.0052,105.9974L 29.0236,105.9882L 25.0828,105.9586L 21.2306,105.8847L 17.5264,105.7368L 14.0069,105.4966L 10.6476,105.1762L 9,105L 8,105L 7,106L 7,109L 7.3333,110.3333L 8,113L 9,114L 10,114L 11.6476,113.6476L 15.0069,113.0069L 18.5264,112.5264L 22.2306,112.2306L 26.0828,112.0828L 30.0236,112.0236L 34.0052,112.0052L 38.0008,112.0008L 42.0001,112.0001L 46,112L 50,112L 399,112L 401.9239,111.7669L 404.8352,111.6424L 407.7209,111.6851L 410.578,111.8755L 412,112L 415,112L 415,110L 412.9985,108.502Z" style="fill:rgb(179,179,179);"/>
<path d="M 25,73L 24,71L 20,71L 20,73L 22,74L 25,74Z" style="fill:rgb(179,179,179);"/>
<path d="M 19,79L 20,80L 21,80L 24,79L 24,77L 22,75.6667L 21,75L 19,75Z" style="fill:rgb(179,179,179);"/>
<path d="M 66,62L 65,62L 62.5964,62.0169L 60.1978,62.0104L 59,62L 58,62L 58,65L 62,65L 63.3333,64.6667L 66,64Z" style="fill:rgb(179,179,179);"/>
<path d="M 68,55L 66.6667,55.3333L 64,56L 62,57L 60,58L 60,60L 61.2505,60.499L 63.7505,61.499L 65,62L 68,62L 70,61L 70,60L 70,57L 70,55Z" style="fill:rgb(179,179,179);"/>
<path d="M 74.499,60L 77,59L 77,58L 74.5885,56.8151L 72.1929,55.6093L 71,55L 70,55L 68.6667,55.6667L 66,57L 66,59L 67.3333,59.6667L 70,61L 72,61Z" style="fill:rgb(179,179,179);"/>
<path d="M 75,56L 75,54L 75,52L 72,52L 69,53L 69,54L 69.6667,55L 71,57L 75,57Z" style="fill:rgb(179,179,179);"/>
<path d="M 84,51L 83,51L 80.6192,51.0558L 78.2118,51.0345L 77,51L 75,51L 75,54L 77,55L 78.501,55.499L 81.501,56.499L 83,57L 84,57Z" style="fill:rgb(179,179,179);"/>
<path d="M 84,52L 84,57L 85,57L 86.5885,56.7942L 89.7813,56.3907L 93,56L 94,55L 94,54L 91,53L 88,52Z" style="fill:rgb(179,179,179);"/>
<path d="M 96,47L 95,46L 93,46L 91.6667,46.3333L 89,47L 88.251,47.7505L 86.751,49.2505L 86,50L 85,51L 85,52L 90,52L 91.1929,51.1929L 93.5885,49.5885L 96,48Z" style="fill:rgb(179,179,179);"/>
<path d="M 116,45L 114.499,44.501L 111.499,43.501L 110,43L 109,43L 107,44L 107,46L 108.2505,46.2495L 110.7505,46.7495L 112,47L 116,47Z" style="fill:rgb(179,179,179);"/>
<path d="M 110,50L 110,47L 107,47L 106,48L 106,50Z" style="fill:rgb(179,179,179);"/>
<path d="M 111,41L 111,43L 114,43L 114,41Z" style="fill:rgb(179,179,179);"/>
<path d="M 123,46L 122,45L 119,44L 118,44L 117,45L 116,46L 116,47L 123,47Z" style="fill:rgb(179,179,179);"/>
<path d="M 159,31L 158,30L 156,30L 153.4095,30.602L 150.8335,31.181L 148.2753,31.7313L 147,32L 147,33L 149,34L 150,34L 151.3956,33.7942L 154.1929,33.3907L 157,33L 159,32Z" style="fill:rgb(179,179,179);"/>
<path d="M 148,35L 148,36L 149,37L 152,37L 152,35Z" style="fill:rgb(179,179,179);"/>
<path d="M 163,33L 158,33L 156.7505,33.2505L 154.2505,33.7505L 153,34L 153,35L 163,35Z" style="fill:rgb(179,179,179);"/>
<path d="M 161,29L 161,30L 162,31L 163,32L 166,32L 166,30L 165,29Z" style="fill:rgb(179,179,179);"/>
<path d="M 171,34L 171,31L 171,30L 171,28L 166,28L 165,29L 165,30L 166,32L 168,33.3333L 169,34Z" style="fill:rgb(179,179,179);"/>
<path d="M 194.3333,24.6667L 191,24L 188,24L 187,26L 187,27L 188.2505,27.2495L 190.7505,27.7495L 192,28L 195,28L 196,27L 196,25Z" style="fill:rgb(179,179,179);"/>
<path d="M 204,27L 206.385,26.5885L 208.7907,26.1929L 210,26L 210,24L 202,24L 202,26L 203,27Z" style="fill:rgb(179,179,179);"/>
<path d="M 212,20L 208,20L 206,21L 206,22L 210,22L 212,21Z" style="fill:rgb(179,179,179);"/>
<path d="M 224,20L 221.3333,19.3333L 220,19L 217,19L 214,20L 214,21L 216.6667,21.6667L 218,22L 221,22L 224,21Z" style="fill:rgb(179,179,179);"/>
<path d="M 246,14L 246,15L 249,16L 252,16L 252,14Z" style="fill:rgb(179,179,179);"/>
<path d="M 258,13L 254,13L 252,14L 252,16L 253.2505,16.499L 255.7505,17.499L 257,18L 265,18L 265,17L 263.9251,16.5157L 261.8317,15.4816L 259.865,14.2999Z" style="fill:rgb(179,179,179);"/>
<path d="M 264,13L 258,13L 258,15L 263,15L 264,14Z" style="fill:rgb(179,179,179);"/>
<path d="M 305,8L 300,8L 297,9L 297,10L 307,10L 307,9Z" style="fill:rgb(179,179,179);"/>
<path d="M 416,112L 418,112L 796,112L 796,106L 458,106L 454,106L 450.0001,106L 446.0008,105.9996L 442.0052,105.9974L 438.0236,105.9882L 434.0828,105.9586L 430.2306,105.8847L 426.5264,105.7368L 423.0069,105.4966L 419.6476,105.1762L 418,105L 415,105L 413,106L 412.2515,106.751L 410.7515,108.251L 410,109L 410,110L 411.2505,110.499L 413.7505,111.499L 415,112Z" style="fill:rgb(179,179,179);"/>
<path d="M 419,115L 419,116L 420,117L 427,117L 427,115Z" style="fill:rgb(179,179,179);"/>
<path d="M 449,5L 437,5L 437,6L 449,6Z" style="fill:rgb(179,179,179);"/>
<path d="M 519,10L 519,12L 528,12L 528,11L 525.1929,10.6093L 522.3956,10.2058L 521,10Z" style="fill:rgb(179,179,179);"/>
<path d="M 552,16L 553,15L 553,14L 549,14L 549,16Z" style="fill:rgb(179,179,179);"/>
<path d="M 556,17L 557,16L 557,15L 555,14L 553,14L 552,15L 552,16L 555,17Z" style="fill:rgb(179,179,179);"/>
<path d="M 556,16L 556,17L 561,17L 561,16ZM 555,16L 554,16L 554,17L 555,17Z" style="fill:rgb(179,179,179);"/>
<path d="M 586,21L 588,22L 593,22L 593,21L 592,20L 589.3333,19.3333L 588,19L 584,19L 584,20Z" style="fill:rgb(179,179,179);"/>
<path d="M 609,23L 605,23L 605,24L 606,25L 608,25L 609,24Z" style="fill:rgb(179,179,179);"/>
<path d="M 613,26L 617,26L 617,25L 616,24L 613,24Z" style="fill:rgb(179,179,179);"/>
<path d="M 617,25L 615,26L 615,27L 616.2505,27.2495L 618.7505,27.7495L 620,28L 621,28L 622,27L 622,26L 621,25Z" style="fill:rgb(179,179,179);"/>
<path d="M 643,33L 644,32L 644,30L 641.3333,29.3333L 640,29L 634,29L 634,30L 635,31L 636.2505,31.499L 638.7505,32.499L 640,33L 641,33L 642,33Z" style="fill:rgb(179,179,179);"/>
<path d="M 642,32L 641,32L 640,33L 640,34L 640,35L 640,36L 642,36L 643,34L 643,33Z" style="fill:rgb(179,179,179);"/>
<path d="M 660,41L 660,39L 655,39L 655,40L 657,41Z" style="fill:rgb(179,179,179);"/>
<path d="M 666,36L 666,37L 667,38L 675,38L 675,37L 672.3333,36.3333L 671,36Z" style="fill:rgb(179,179,179);"/>
<path d="M 687,40L 685.7495,39.7505L 683.2495,39.2505L 682,39L 681,39L 681,41L 683,42L 685,42L 687,41Z" style="fill:rgb(179,179,179);"/>
<path d="M 691,41L 686,41L 686,43L 689,43L 691,42Z" style="fill:rgb(179,179,179);"/>
<path d="M 690,48L 693,47L 693,46L 686,46L 686,48Z" style="fill:rgb(179,179,179);"/>
<path d="M 697,46L 693,46L 690,47L 689,48L 689,49L 694,49L 695,48.3333L 697,47Z" style="fill:rgb(179,179,179);"/>
<path d="M 698,43L 695,43L 694,44L 694,45L 698,45Z" style="fill:rgb(179,179,179);"/>
<path d="M 711,51L 704,51L 704,52L 706,53L 708,54L 709,54L 710,53L 711,52Z" style="fill:rgb(179,179,179);"/>
<path d="M 703,48L 707,48L 708,47L 708,46L 705,45L 704,45L 703,46Z" style="fill:rgb(179,179,179);"/>
<path d="M 718,49L 715,48L 712,47L 707,47L 707,48L 708,49L 709.2505,49.2495L 711.7505,49.7495L 713,50L 718,50Z" style="fill:rgb(179,179,179);"/>
<path d="M 717,52L 710,52L 709,53L 709,54L 711,55L 713,56L 718,56L 718,54Z" style="fill:rgb(179,179,179);"/>
<path d="M 719,49L 718,49L 717,51L 716,53L 716,54L 719,54L 720.3333,53.6667L 723,53L 723,51L 722,50Z" style="fill:rgb(179,179,179);"/>
<path d="M 725,54L 725,51L 723,51L 721.6667,51.6667L 719,53L 718,54L 718,57L 720,57L 721.3333,56.6667L 724,56Z" style="fill:rgb(179,179,179);"/>
<path d="M 720,56L 719,57L 719,58L 721,59L 724,59L 725.3333,58.3333L 728,57L 728,56L 726,54.6667L 725,54L 724,54L 722.6667,54.6667Z" style="fill:rgb(179,179,179);"/>
<path d="M 724,59L 726.6667,60.3333L 728,61L 733,61L 733,60L 732,59L 730,57L 724,57Z" style="fill:rgb(179,179,179);"/>
<path d="M 735,54L 732,53L 729,52L 725,52L 725,56L 726,56L 727.3956,55.9871L 730.1929,55.9791L 733,56L 734,56L 735,55Z" style="fill:rgb(179,179,179);"/>
<path d="M 734,55L 733,55L 731,55L 730,56L 729,59L 729,60L 730.0375,60.4625L 732.0751,61.4249L 734.0375,62.4625L 735,63L 740,63L 741.998,60.998L 744,59L 745,58L 745,57L 742,56L 739,55Z" style="fill:rgb(179,179,179);"/>
<path d="M 753,63L 753,61L 749,61L 748,63L 748,64L 750,64Z" style="fill:rgb(179,179,179);"/>
<path d="M 798,110L 797,110L 796,112L 796,116L 797,116L 798,115Z" style="fill:rgb(179,179,179);"/>
<path d="M 799,110L 800,108L 800,96L 799,96L 798.6093,98.8071L 798.2058,101.6044L 798,103L 798,110Z" style="fill:rgb(179,179,179);"/>
<path d="M 2,106L 2,101L 1.7495,99.501L 1.2495,96.501L 1,95L 0,95L 0,105L 1,106Z" style="fill:rgb(183,183,183);"/>
<path d="M 2,109L 1.6667,107.6667L 1,105L 0,105L 0,112L 0.2058,113.3956L 0.6093,116.1929L 1,119L 2,119Z" style="fill:rgb(183,183,183);"/>
<path d="M 5,76L 2,76L 1.7505,77L 1.2505,79L 1,80L 1,82L 2,82.3333L 4,83L 10,83L 11.3333,82.3333L 14,81L 14,80L 12.6557,79.5227L 10.0111,78.4972L 7.4658,77.3125Z" style="fill:rgb(183,183,183);"/>
<path d="M 390.5,128.7495L 391.5,126.2495L 392,125L 392,123L 391,120L 390,119L 388,119L 386.3524,119.3524L 382.9931,119.9931L 379.4736,120.4736L 375.7694,120.7694L 371.9172,120.9172L 367.9764,120.9764L 363.9948,120.9948L 359.9992,120.9992L 355.9999,120.9999L 352,121L 348,121L 44,121L 42,121L 40,120.9999L 36.0004,120.9994L 32.0034,120.9958L 28.0189,120.9782L 24.0778,120.9148L 20.2501,120.7353L 16.6517,120.3259L 13.4127,119.5612L 10.6028,118.3756L 8.1536,116.838L 7,116L 6,116L 5.0027,116.7543L 3.0027,118.2543L 2,119L 2,125L 2.2505,126.2495L 2.7505,128.7495L 3,130L 5,130L 6.3334,129.9999L 9,130L 10,130L 11.6476,129.8238L 15.0069,129.5034L 18.5264,129.2632L 22.2306,129.1153L 26.0828,129.0414L 30.0236,129.0118L 34.0052,129.0026L 38.0008,129.0004L 42.0001,129L 46,129L 50,129L 348,129L 352,129L 355.9999,129L 359.9992,129.0004L 363.9948,129.0026L 367.9764,129.0118L 371.9172,129.0414L 375.7694,129.1153L 379.4736,129.2632L 382.9931,129.5034L 386.3524,129.8238L 388,130L 390,130Z" style="fill:rgb(183,183,183);"/>
<path d="M 42,70L 42,68L 39,68L 39,70Z" style="fill:rgb(183,183,183);"/>
<path d="M 44,62L 41,62L 39,63L 39,64L 40,65L 41,66L 48,66L 49.2958,65.6479L 51.9249,64.9625L 54.6291,64.3146L 56,64L 56,63L 53.1929,62.6093L 50.3956,62.2058L 49,62L 46,62Z" style="fill:rgb(183,183,183);"/>
<path d="M 56,65L 53.3333,64.3333L 52,64L 50,64L 48,65L 47,66L 47,67L 51,67L 52.2495,66.7495L 54.7495,66.2495L 56,66Z" style="fill:rgb(183,183,183);"/>
<path d="M 56,60L 56,58L 53,58L 50,59L 49,61L 49,63L 55,63Z" style="fill:rgb(183,183,183);"/>
<path d="M 65,63L 65,60L 61,60L 61,62L 63,63Z" style="fill:rgb(183,183,183);"/>
<path d="M 71,60L 71,58L 68,58L 68,60Z" style="fill:rgb(183,183,183);"/>
<path d="M 91,48L 85,48L 82,49L 82,50L 83,51L 84,52L 85,52L 86.1929,51.3971L 88.5885,50.1953L 91,49Z" style="fill:rgb(183,183,183);"/>
<path d="M 395,129L 396.6471,128.8238L 400.001,128.5034L 403.4936,128.2632L 407.1166,128.1157L 410.8032,128.044L 414.5,128.0236L 418.1968,128.044L 421.8834,128.1157L 425.5064,128.2632L 428.999,128.5034L 432.3529,128.8238L 434,129L 756,129L 760,129L 763.9999,129.0001L 767.9991,129.0009L 771.994,129.006L 775.9704,129.0296L 779.8884,129.1116L 783.6629,129.3371L 787.1602,129.8398L 790.2361,130.7639L 792.8192,132.1808L 794.9931,134.0069L 796,135L 797,135L 798,132L 798,125L 796.6667,122.3333L 796,121L 472,121L 468,121L 464.0001,121L 460.0008,120.9996L 456.0052,120.9974L 454.0144,120.9928L 452.0339,120.9831L 448.1058,120.9476L 444.2744,120.8664L 440.606,120.7128L 437.1661,120.4675L 433.9924,120.1279L 431.0724,119.7101L 428.3352,119.2424L 427,119L 422,119L 420.3524,119.1762L 416.9931,119.4966L 413.4736,119.7368L 409.7733,119.8847L 405.9563,119.9586L 402.1561,119.9882L 398.5027,119.9975L 395,120L 394,122L 394,129Z" style="fill:rgb(183,183,183);"/>
<path d="M 649,33L 649,31L 646.3333,30.3333L 645,30L 644,30L 644,33Z" style="fill:rgb(183,183,183);"/>
<path d="M 754,63L 753.3333,64.3333L 752,67L 752,68L 757,68L 758.3333,67.3333L 761,66L 762,64L 762,63Z" style="fill:rgb(183,183,183);"/>
<path d="M 757,70L 760,70L 762,68L 763,67L 763,66L 758,66L 757,67Z" style="fill:rgb(183,183,183);"/>
<path d="M 774,73L 773,72L 771,70L 766,70L 765,71L 765,72L 766.0375,72.4625L 768.0751,73.4249L 770.0375,74.4625L 771,75L 773,75L 774,74Z" style="fill:rgb(183,183,183);"/>
<path d="M 784,73L 784,72L 784,71L 783,70L 780,70L 778,71L 778,73L 779,73.6667L 781,75L 782,75L 784,74Z" style="fill:rgb(183,183,183);"/>
<path d="M 797,76L 794,76L 793,76L 792,76L 789.6093,77.2187L 787.2058,78.4115L 786,79L 786,80L 789,81L 792,82L 796,82L 798,80L 798,79Z" style="fill:rgb(183,183,183);"/>
<path d="M 796,84L 798,85L 799,85L 799.3333,83.6667L 800,81L 800,78L 797,78L 796,80Z" style="fill:rgb(183,183,183);"/>
<path d="M 800,108L 799,108L 798,110L 798,125L 800,125Z" style="fill:rgb(183,183,183);"/>
<path d="M 413.3417,110.3617L 410.4936,110.6542L 407.3839,110.8448L 404.08,110.9442L 400.6976,110.9874L 399,111L 397.3524,111.1762L 393.9931,111.4966L 390.4736,111.7368L 386.7694,111.8847L 382.9172,111.9586L 378.9764,111.9882L 374.9948,111.9974L 370.9992,111.9996L 366.9999,112L 363,112L 359,112L 44,112L 40,112L 38.0002,111.9999L 34.0017,111.9988L 30.011,111.9921L 26.0498,111.9633L 22.1742,111.8681L 18.4893,111.6186L 15.1399,111.0863L 12.2581,110.1437L 9.8845,108.7391L 7.9108,106.9611L 7,106L 6,106L 5.0027,106.7543L 3.0027,108.2543L 2,109L 2,119L 2.2505,120.2495L 2.7505,122.7495L 3,124L 5,124L 6.3333,123.9999L 9,124L 10,124L 12.6545,122.9909L 15.5332,122.1499L 18.757,121.5677L 22.3134,121.2351L 26.1064,121.0798L 30.0288,121.0216L 34.006,121.0045L 38.0009,121.0007L 42.0001,121.0001L 46,121L 50,121L 354,121L 358,121L 361.9998,121.0002L 365.9978,121.0015L 369.9865,121.0097L 373.9402,121.0443L 377.796,121.1552L 381.4412,121.4361L 384.7314,122.0128L 387.556,122.9886L 389.9221,124.3662L 392,126L 394,126L 395.8536,124.174L 398.0041,122.5968L 400.6352,121.4238L 403.7703,120.6771L 405.5373,120.4757L 409.1828,120.1833L 412.9428,120.0593L 416.5958,120.0199L 419.9564,120.0274L 422.9598,120.087L 425.6789,120.2282L 428.2439,120.4743L 430.752,120.8124L 432,121L 756,121L 760,121L 763.9999,121.0001L 767.9991,121.0009L 771.994,121.006L 775.9704,121.0296L 779.8884,121.1116L 783.6629,121.3371L 787.1602,121.8398L 790.2361,122.7639L 792.8192,124.1808L 794.9931,126.0069L 796,127L 797,127L 798,125L 798,115L 797.3333,114L 796,112L 458,112L 454,112L 450.0001,111.9999L 446.0008,111.9992L 442.0052,111.9948L 438.0236,111.9764L 434.0828,111.9172L 430.2306,111.7694L 426.5264,111.4736L 423.0069,110.9931L 419.6476,110.3524L 418,110L 416,110ZM 423.25,115.625L 422.25,116.75Z" style="fill:rgb(181,181,181);"/>
<path d="M 19,79L 19,75L 15,75L 15,77L 16,79Z" style="fill:rgb(181,181,181);"/>
<path d="M 29,66L 28,68L 28,69L 29,70L 31.4076,71.1849L 33.8047,72.3907L 35,73L 39,73L 40.3333,72.3333L 43,71L 45.3907,69.7813L 47.7942,68.5885L 49,68L 49,67L 47,66L 44.277,65.0563L 41.6104,64.0563L 39,63L 38,63L 35,64L 33.8102,64.4115L 31.4165,65.2187ZM 40.5,68L 41.25,69Z" style="fill:rgb(181,181,181);"/>
<path d="M 58.499,63.7495L 61.499,63.2495L 63,63L 63,62L 61,61L 59,60L 55,60L 55,63L 56,64L 57,64Z" style="fill:rgb(181,181,181);"/>
<path d="M 78,58L 78,56L 75,56L 73,57L 73,58Z" style="fill:rgb(181,181,181);"/>
<path d="M 126,38L 122,38L 119,39L 118,40L 118,41L 122,41L 123.3333,40.6667L 126,40Z" style="fill:rgb(181,181,181);"/>
<path d="M 415,109L 415,108L 414,107L 411,107L 410,108L 410,109Z" style="fill:rgb(181,181,181);"/>
<path d="M 780,69L 778,68L 776.7942,67.6029L 774.3907,66.8047L 772,66L 769,65L 765,65L 764,65.6029L 762,66.8047L 760,68L 760,70L 761,71L 764,72L 765,72L 766.2025,71.9876L 768.613,72.0116L 771.0296,72.1546L 773.4354,72.4288L 775.8163,72.7982L 777,73L 778,73L 780,71Z" style="fill:rgb(181,181,181);"/>
<path d="M 2,119L 1.7942,117.6044L 1.3907,114.8071L 1,112L 0,112L 0,121L 0.3333,122.3333L 1,125L 2,125Z" style="fill:rgb(185,185,185);"/>
<path d="M 394.1961,125.7538L 392,125L 391,125L 389.8397,125.6441L 387.3799,126.8347L 384.5664,127.7729L 381.3304,128.3998L 377.7382,128.7516L 373.9163,128.915L 369.9788,128.9767L 365.9959,128.9951L 361.9994,128.9993L 358,128.9999L 354,129L 350,129L 46,129L 44,129L 40.0001,128.9999L 38.0005,128.9996L 34.0038,128.9974L 30.02,128.9865L 26.0794,128.9451L 22.2513,128.8213L 18.6505,128.5218L 15.4083,127.9311L 12.5973,126.9751L 10.1511,125.7009L 9,125L 5,125L 3,125L 2,125L 2,132L 2.2058,133.3956L 2.6093,136.1929L 3,139L 5,139L 7.6668,138.9993L 9,139L 10,139L 11.6476,138.8238L 15.0069,138.5034L 18.5264,138.2632L 22.2306,138.1153L 26.0828,138.0414L 30.0236,138.0118L 34.0052,138.0026L 38.0008,138.0004L 42.0001,138L 46,138L 50,138L 337,138L 341,138L 344.9999,138L 348.9992,138.0004L 352.9944,138.003L 356.973,138.0148L 360.9002,138.0558L 364.7043,138.1685L 368.2756,138.4199L 371.4993,138.8819L 374.3226,139.5904L 376.8169,140.5034L 378,141L 381,141L 382.1485,140.4027L 384.5444,139.287L 387.2062,138.3789L 390.223,137.7364L 391.9072,137.5398L 395.4091,137.2402L 399.1112,137.0916L 402.882,137.0296L 406.6324,137.0101L 410.3563,137.0133L 414.0895,137.0416L 417.8241,137.1153L 421.4844,137.2632L 424.9941,137.5034L 428.3524,137.8238L 430,138L 756,138L 760,138L 763.9999,138.0001L 767.9991,138.0007L 771.994,138.0045L 775.9712,138.0216L 779.8936,138.0798L 783.6866,138.2351L 787.243,138.5677L 790.4668,139.1499L 793.3455,139.9909L 796,141L 798,141L 798.6667,138.3333L 799,137L 799,135L 798,132L 796.6667,130L 796,129L 474,129L 470,129L 466.0001,129L 462.0008,128.9996L 458.0052,128.9974L 454.0236,128.9882L 450.0828,128.9586L 446.2306,128.8847L 442.5264,128.7368L 439.0069,128.4966L 435.6476,128.1762L 434,128L 432.5,128L 430.75,128L 427,128L 423.0005,127.9997L 419.0037,127.9978L 415.0186,127.9883L 411.0691,127.9525L 407.1986,127.8468L 403.4578,127.5964L 399.8763,127.1152L 396.4404,126.3584Z" style="fill:rgb(185,185,185);"/>
<path d="M 5,75L 5,77L 5.3333,78.3333L 6,81L 7,81L 10,80L 10,77L 9,76.3333L 7,75Z" style="fill:rgb(185,185,185);"/>
<path d="M 790,74L 787,74L 784.501,75.001L 782,76L 782,78L 786,78L 787.499,77.7495L 790.499,77.2495L 792,77L 792,75Z" style="fill:rgb(185,185,185);"/>
<path d="M 3,144L 3,142L 2.3333,140.6667L 1,138L 0,138L 0,145L 0.1854,146.4875L 0.5375,149.475L 0.8521,152.4875L 1,154L 2,154L 2.1479,152.2958L 2.4625,148.9249L 2.8146,145.6291Z" style="fill:rgb(191,191,191);"/>
<path d="M 404.3963,168.0473L 407.0007,167.2388L 409.9159,166.6627L 413.1089,166.3356L 416.4596,166.2275L 419.8374,166.2985L 423.1558,166.5123L 426.3967,166.8253L 428,167L 796,167L 797,166L 799,164L 799.2495,162.7495L 799.7495,160.2495L 800,159L 800,154L 797.998,152.002L 796,150L 469,150L 465,150L 461.0001,150L 457.0008,149.9996L 453.0052,149.9974L 449.0236,149.9882L 445.0828,149.9586L 441.2306,149.8847L 437.5264,149.7368L 434.0069,149.4966L 430.6476,149.1762L 429,149L 386,149L 383.6103,149.6477L 381.2779,149.9801L 380.1389,149.99L 377,150L 37,150L 33.0001,150L 29.0017,149.9993L 25.0139,149.9939L 21.0719,149.9653L 17.2668,149.862L 13.7562,149.586L 10.709,149.0231L 8.1792,148.1271L 6,147L 4,147L 3,150L 2.3333,152.6667L 2,154L 2,164L 2.2505,165.2495L 2.7505,167.7495L 3,169L 5,169L 7.6668,168.9999L 9,169L 10,169L 11.6476,168.6476L 15.0069,168.0069L 18.5264,167.5264L 22.2306,167.2306L 26.0828,167.0828L 30.0236,167.0236L 34.0052,167.0052L 38.0008,167.0008L 42.0001,167.0001L 46,167L 50,167L 358,167L 362,167L 365.9999,167L 369.9992,167.0004L 373.9948,167.003L 377.9756,167.0144L 381.9128,167.0532L 385.7502,167.1567L 389.4101,167.3785L 392.826,167.7666L 395.9931,168.3272L 399,169L 402,169ZM 390.75,161.75L 391.875,161.875Z" style="fill:rgb(191,191,191);"/>
<path d="M 82,52L 79,51L 77,51L 77,53L 78,54L 80,54L 82,53Z" style="fill:rgb(191,191,191);"/>
<path d="M 79,52L 83,52L 83,50L 79,50Z" style="fill:rgb(191,191,191);"/>
<path d="M 2,131L 1,129L 0,129L 0,138L 1,141L 2,141Z" style="fill:rgb(189,189,189);"/>
<path d="M 7.3333,145L 8,144L 8,142L 7,139L 6,139L 5.5,140.2505L 4.5,142.7505L 4,144L 4,147L 6,147Z" style="fill:rgb(189,189,189);"/>
<path d="M 382,141L 381,141L 379.3524,141.1762L 375.9931,141.4966L 372.4736,141.7368L 368.7694,141.8847L 364.9172,141.9586L 360.9764,141.9882L 356.9948,141.9974L 352.9992,141.9996L 348.9999,142L 345,142L 341,142L 10,142L 8.7084,144.0167L 7.375,146.0167L 6,148L 6,154L 9,154L 11.6545,152.6545L 14.5332,151.5332L 17.757,150.757L 21.3134,150.3134L 25.1064,150.1064L 29.0288,150.0288L 33.006,150.006L 37.0009,150.0009L 41.0001,150.0001L 45,150L 49,150L 339,150L 343,150L 346.9999,150.0001L 350.9991,150.0009L 354.994,150.006L 358.9712,150.0288L 362.8936,150.1064L 366.6866,150.3134L 370.243,150.757L 373.4668,151.5332L 376.3455,152.6545L 379,154L 380,154L 382.5002,153.998L 385,154L 389,154L 390.6066,152.296L 392.6236,150.8806L 395.2593,149.9093L 398.4566,149.3645L 401.9946,149.1186L 405.661,149.0327L 409.3617,149.0177L 413.0902,149.0422L 416.8241,149.1154L 420.4844,149.2632L 423.9941,149.5034L 427.3524,149.8238L 429,150L 796,150L 796,144L 794.2958,143.7042L 790.9249,143.0751L 787.6291,142.3709L 786,142L 470,142L 466,142L 462.0001,142L 458.0008,141.9996L 454.0052,141.9974L 450.0236,141.9882L 446.0828,141.9586L 442.2306,141.8847L 438.5264,141.7368L 435.0069,141.4966L 431.6476,141.1762L 430,141L 385,141ZM 381,147L 380.25,146Z" style="fill:rgb(189,189,189);"/>
<path d="M 20,72L 19,72L 19,74L 20.3333,76L 21,77L 23,77L 23,76L 22,73Z" style="fill:rgb(189,189,189);"/>
<path d="M 26,68L 24,68L 21,69L 19,70L 19,71L 24,71L 26,70Z" style="fill:rgb(189,189,189);"/>
<path d="M 35,72L 34,70L 28,70L 28,71L 29,74L 33,74L 35,73Z" style="fill:rgb(189,189,189);"/>
<path d="M 44,63L 46,63L 49,62L 50,61L 50,60L 47,60L 44,61Z" style="fill:rgb(189,189,189);"/>
<path d="M 402,172L 402,170L 399,170L 399,172L 400,173L 401,173Z" style="fill:rgb(189,189,189);"/>
<path d="M 800,139L 799,139L 798.7505,140.2505L 798.2505,142.7505L 798,144L 798,154L 800,154Z" style="fill:rgb(189,189,189);"/>
<path d="M 2,125L 1.6667,123.6667L 1,121L 0,121L 0,129L 1,131L 2,131Z" style="fill:rgb(187,187,187);"/>
<path d="M 0,82L 0,85L 1,85L 3,84L 4,83L 4,81L 2,81Z" style="fill:rgb(187,187,187);"/>
<path d="M 2,154L 3,154L 4.5107,152.4104L 6.1775,151.0771L 8,150L 8.8467,148.8467L 10.6769,146.6769L 12.8755,144.8755L 15.5657,143.5657L 18.7414,142.7414L 22.299,142.299L 26.1002,142.1002L 30.0271,142.0271L 34.0056,142.0056L 38.0008,142.0008L 42.0001,142.0001L 46,142L 50,142L 381,142L 381,141L 379.9999,140.2505L 377.9999,138.7505L 377,138L 46,138L 42,138L 38.0002,137.9998L 34.0023,137.9977L 30.0141,137.9859L 26.0634,137.9366L 24.1404,137.8596L 20.407,137.5937L 16.9743,137.0335L 13.9785,136.0658L 11.4914,134.6667L 9.4755,132.9268L 7.7865,130.9947L 7,130L 6,130L 5.0062,130.5065L 3.0062,131.5065L 2,132L 2,142L 2,144Z" style="fill:rgb(187,187,187);"/>
<path d="M 8,77L 10,77L 10,75L 8,74L 7,74L 7,76Z" style="fill:rgb(187,187,187);"/>
<path d="M 14,78L 12,77L 10,77L 10,80L 13,80L 14,79Z" style="fill:rgb(187,187,187);"/>
<path d="M 8,74L 8,75L 11,75L 13,75L 17,75L 17,74L 16,72L 13,72L 10,73Z" style="fill:rgb(187,187,187);"/>
<path d="M 13,74L 11,74L 10,75L 10,77L 12,78L 14,79L 16,79L 16,77L 15,75Z" style="fill:rgb(187,187,187);"/>
<path d="M 19,70L 18,70L 15,71L 15,72L 15,73L 15,74L 17,75L 20,75L 20,74L 20,72L 20,71Z" style="fill:rgb(187,187,187);"/>
<path d="M 26,73L 25,73L 22,74L 22,76L 25,76L 27,75L 27,74Z" style="fill:rgb(187,187,187);"/>
<path d="M 26,70L 24,70L 24,73L 26,74L 29,74L 29,73L 28.2495,72.2505L 26.7495,70.7505Z" style="fill:rgb(187,187,187);"/>
<path d="M 29,67L 26,67L 26,72L 27,73L 29,73L 29,71L 29,70L 29,69L 29,68Z" style="fill:rgb(187,187,187);"/>
<path d="M 58,63L 57,63L 55.7505,63.2505L 53.2505,63.7505L 52,64L 52,65L 58,65Z" style="fill:rgb(187,187,187);"/>
<path d="M 63,55L 62,55L 59,56L 56,57L 56,60L 59,61L 61,61L 61.999,59L 63,57Z" style="fill:rgb(187,187,187);"/>
<path d="M 66,54L 63,55L 63,57L 64,57L 65.3333,56.6667L 68,56L 71,55L 71,54Z" style="fill:rgb(187,187,187);"/>
<path d="M 100,44L 100,45L 105,45L 105,43L 104,43L 102.6667,43.3333Z" style="fill:rgb(187,187,187);"/>
<path d="M 380,143L 378,143L 378,145L 379,148L 380.3333,150L 381,151L 384,151L 385,149L 385,148L 384.1479,147.1854L 382.4625,145.5375L 380.8146,143.8521Z" style="fill:rgb(187,187,187);"/>
<path d="M 381,138L 381,141L 382,144L 383,144L 384.3593,143.5034L 387.174,142.5904L 390.2375,141.8819L 391.9224,141.6509L 395.421,141.2942L 399.1163,141.1122L 402.8835,141.0357L 406.6327,141.0115L 410.3563,141.0135L 414.0895,141.0416L 417.8241,141.1153L 421.4844,141.2632L 424.9941,141.5034L 428.3524,141.8238L 430,142L 746,142L 750,142L 753.9999,142.0001L 757.9992,142.0008L 761.9948,142.0052L 765.9764,142.0236L 769.9172,142.0828L 773.7694,142.2306L 777.4736,142.5264L 780.9914,143.0086L 784.3211,143.6789L 787.4432,144.5568L 790.2404,145.7596L 792.5354,147.4646L 794.2422,149.7578L 795.4745,152.5255L 796,154L 798,154L 798.1535,152.3316L 798.4801,149.0602L 798.8552,145.9586L 799.2855,143.0637L 799.7569,140.3338L 800,139L 800,134L 799,132L 798,132L 797.2701,132.9725L 795.6234,134.7677L 793.4914,136.1773L 790.7543,137.1137L 787.4745,137.6355L 783.8161,137.8761L 779.9482,137.9662L 775.9888,137.9929L 771.9982,137.9989L 767.9998,137.9999L 764,138L 760,138L 470,138L 466,138L 462.0001,138L 458.0008,137.9996L 454.0052,137.9974L 450.0236,137.9882L 446.0828,137.9586L 442.2306,137.8847L 438.5264,137.7368L 435.0069,137.4966L 431.6476,137.1762L 430,137L 385,137L 383.6667,137.3333Z" style="fill:rgb(187,187,187);"/>
<path d="M 743,61L 740,61L 740,63L 743,63Z" style="fill:rgb(187,187,187);"/>
<path d="M 753,60L 751,59L 748,58L 745,58L 745,61L 745,63L 745,65L 747,65L 748.1929,64.1929L 750.5885,62.5885L 753,61Z" style="fill:rgb(187,187,187);"/>
<path d="M 754,63L 750,63L 747,64L 747,65L 748,66L 749,67L 753,67L 754,66Z" style="fill:rgb(187,187,187);"/>
<path d="M 757,61L 754,60L 753,60L 753,63L 760,63L 760,62Z" style="fill:rgb(187,187,187);"/>
<path d="M 766,64L 763,63L 762,63L 761,64L 761,66L 763,67L 764,67L 765,66L 766,65Z" style="fill:rgb(187,187,187);"/>
<path d="M 773,74L 773,75L 775,76L 776,76L 777,74L 777,71L 774,71L 773,72L 773,73Z" style="fill:rgb(187,187,187);"/>
<path d="M 777,73L 776,74L 776,76L 780,76L 780,73Z" style="fill:rgb(187,187,187);"/>
<path d="M 781,74L 780,74L 779,76L 779,77L 782,77L 783.3333,76.6667L 786,76L 786,75L 784,74L 782,74Z" style="fill:rgb(187,187,187);"/>
<path d="M 784,72L 783,72L 783,73L 784,75L 787,75L 787,74L 786,73Z" style="fill:rgb(187,187,187);"/>
<path d="M 791,77L 786,77L 786,79L 791,79Z" style="fill:rgb(187,187,187);"/>
<path d="M 796,75L 793.6385,74L 791.3052,73L 789,72L 788,72L 787,73L 787,74L 788.2058,74.5964L 790.6093,75.7942L 793,77L 794,77L 796,76Z" style="fill:rgb(187,187,187);"/>
<path d="M 800,78L 800,76L 797,76L 797,78Z" style="fill:rgb(187,187,187);"/>
<path d="M 800,85L 800,81L 798,81L 798,83L 799,85Z" style="fill:rgb(187,187,187);"/>
<path d="M 800,134L 800,125L 798,125L 798,132L 799,134Z" style="fill:rgb(187,187,187);"/>
<path d="M 2.4293,155.33L 1.8691,152.5281L 1.4684,149.5327L 1.1479,146.5125L 1,145L 0,145L 0,164L 0.3207,165.5077L 0.9156,168.5471L 1.3935,171.6445L 1.7394,174.8034L 2,178L 3,179L 4.2135,179.191L 6.6218,179.5854L 9,180L 10,180L 12.6545,178.9909L 15.5332,178.1499L 18.757,177.5677L 22.3134,177.2351L 26.1064,177.0798L 30.0288,177.0216L 34.006,177.0045L 38.0009,177.0007L 42.0001,177.0001L 46,177L 50,177L 756,177L 760,177L 763.9999,177.0001L 767.9991,177.0009L 771.994,177.006L 775.9703,177.0295L 779.8875,177.1111L 783.657,177.3355L 787.1314,177.8377L 790.1297,178.774L 792.5057,180.2564L 794.2361,182.2832L 795.4736,184.7118L 796,186L 797,186L 798,183L 798.2495,181.7495L 798.7495,179.2495L 799,178L 799.1479,176.4875L 799.4625,173.475L 799.8146,170.4875L 800,169L 800,159L 799,159L 798.3714,160.0609L 797.0007,162.0767L 795.3087,163.8017L 793.1457,165.1232L 790.4519,166.0205L 787.2667,166.5535L 783.7034,166.8259L 779.9003,166.9434L 775.973,166.9851L 771.9944,166.997L 767.9992,166.9996L 763.9999,167L 760,167L 756,167L 468,167L 464,167L 460.0001,167L 456.0008,166.9996L 452.0052,166.9974L 448.0236,166.9882L 444.0828,166.9586L 440.2306,166.8847L 436.5264,166.7368L 433.0069,166.4966L 429.6476,166.1762L 428,166L 403,166L 402,166L 400,166L 398.3709,166.1855L 395.0386,166.5193L 391.5242,166.7621L 387.8075,166.9037L 383.9382,166.9691L 379.9849,166.9925L 375.9974,166.9987L 371.9997,166.9999L 368,167L 364,167L 46,167L 44,167L 40.0001,166.9999L 36.0013,166.9992L 32.0082,166.9948L 28.0388,166.9756L 24.1404,166.9128L 20.4066,166.7502L 16.9684,166.4101L 13.9406,165.826L 11.313,164.9814L 8.9247,163.8884L 6.691,162.4978L 4.7725,160.649L 3.3439,158.1138L 2.3377,154.6897ZM 402.0625,171.9375L 403.125,171.875Z" style="fill:rgb(194,194,194);"/>
<path d="M 390,161L 390,164L 393,164L 394,163L 394,162L 393,161Z" style="fill:rgb(194,194,194);"/>
<path d="M 787,74L 788,73L 788,72L 786,71L 784,71L 784,73L 786,74Z" style="fill:rgb(194,194,194);"/>
<path d="M 1,82L 2,80L 3,78L 3,77L 0,77L 0,82Z" style="fill:rgb(198,198,198);"/>
<path d="M 2,167L 1,164L 0,164L 0,177L 0.3226,178.5405L 0.9252,181.6702L 1.4252,184.9193L 1.8226,188.2895L 2,190L 2.3333,191.3333L 3,194L 5,194L 8,194L 10,194L 11.0069,193.1831L 13.1808,191.6774L 15.7639,190.5007L 18.8398,189.7244L 22.3371,189.2957L 26.1116,189.0998L 30.0296,189.027L 34.006,189.0056L 38.0009,189.0008L 42.0001,189.0001L 46,189L 50,189L 756,189L 760,189L 763.9999,189.0001L 767.9991,189.0009L 771.994,189.006L 775.9712,189.0288L 779.8936,189.1064L 783.6866,189.3134L 787.243,189.757L 790.4668,190.5332L 793.3455,191.6545L 796,193L 797,193L 798,192L 798.6667,189.3333L 799,188L 799.3907,185.1929L 799.7942,182.3956L 800,181L 800,169L 799,169L 798.2485,171.5274L 797.1193,173.7052L 795.3271,175.3012L 792.7673,176.2737L 789.5393,176.7522L 785.8671,176.9358L 781.9724,176.9882L 777.9963,176.9987L 773.9998,176.9999L 770,177L 34,177L 30.0003,177L 28.0023,176.9999L 24.0166,176.9985L 20.0769,176.9889L 16.2597,176.9453L 12.6893,176.7986L 9.5162,176.4176L 6.8788,175.6246L 4.8643,174.2631L 3.4726,172.2835L 2.5917,169.7868Z" style="fill:rgb(198,198,198);"/>
<path d="M 404,170L 402,170L 402,174L 403,174L 404,173Z" style="fill:rgb(198,198,198);"/>
<path d="M 0,187L 1,189L 2,189L 2,180L 1,177L 0,177Z" style="fill:rgb(200,200,200);"/>
<path d="M 8,201L 10,201L 11.6476,200.8238L 15.0069,200.5034L 18.5264,200.2632L 22.2306,200.1153L 26.0828,200.0414L 30.0236,200.0118L 34.0052,200.0026L 38.0008,200.0004L 42.0001,200L 46,200L 50,200L 756,200L 760,200L 763.9999,200.0001L 767.9991,200.0008L 771.994,200.0056L 775.9704,200.027L 779.8884,200.0998L 783.6629,200.2957L 787.1602,200.7244L 790.2361,201.5007L 792.8192,202.6774L 794.9931,204.1831L 796,205L 798,205L 798,200L 798,199L 798,195L 797.5964,193.8071L 796.7942,191.4115L 796,189L 40,189L 38,189L 34.0004,189L 30.004,188.9994L 26.023,188.9956L 22.0939,188.9781L 18.2912,188.922L 14.7171,188.7882L 11.4453,188.5439L 8.445,188.1957L 7,188L 6,188L 4.0024,189.0034L 2,190L 2,195L 2,198L 2,200L 3,201L 5,201L 7,200.9995ZM 42.0001,195L 46,195L 50,195L 756,195L 760,195L 762,195L 763.9997,195.0003L 765.9987,195.0013L 767.9953,195.0043L 771.9756,195.0208L 773.935,195.0522L 775.8429,195.1189L 779.4246,195.3927L 781.8217,196.2971L 781.8281,197.7243L 779.4758,198.6781L 775.9084,198.9432L 771.9869,198.9912L 767.9985,198.9989L 763.9999,198.9999L 760,199L 756,199L 50,199L 46,199L 42.0001,198.9999L 40.0006,198.9995L 38.0025,198.9979L 36.0085,198.9928L 32.042,198.9664L 30.1085,198.9173L 28.2547,198.8155L 24.9147,198.4023L 23.4788,197.0098L 24.914,195.5509L 28.1753,195.1016L 32.0298,195.0172L 36.0045,195.0026L 40.0005,195.0003Z" style="fill:rgb(200,200,200);"/>
<path d="M 800,181L 799,181L 798.7878,182.3972L 798.3409,185.1783L 797.8405,187.928L 797.2874,190.6468L 797,192L 797,193L 799,193L 799.6667,190.3333L 800,189Z" style="fill:rgb(200,200,200);"/>
<path d="M 0,200L 0.7744,202.3988L 1.4973,204.8197L 2.143,207.2731L 2.7228,209.7541L 3,211L 5,211L 6.3333,210.9999L 9,211L 10,211L 11.6476,210.6476L 15.0069,210.0069L 18.5264,209.5264L 22.2306,209.2306L 26.0828,209.0828L 30.0236,209.0236L 34.0052,209.0052L 38.0008,209.0008L 42.0001,209.0001L 46,209L 50,209L 756,209L 760,209L 763.9999,209L 767.9992,209.0004L 771.9948,209.0026L 775.9764,209.0118L 779.9172,209.0414L 783.7694,209.1153L 787.4736,209.2632L 790.9931,209.5034L 794.3524,209.8238L 796,210L 798,210L 799,209L 800,208L 800,189L 799,189L 797.6667,191.6667L 797,193L 795.9771,195.3466L 794.4872,197.3033L 792.2572,198.6625L 789.2852,199.445L 785.7659,199.8134L 781.9416,199.9515L 777.9896,199.9909L 773.9988,199.9989L 769.9999,199.9999L 766,200L 46,200L 44,200L 40.0001,200L 36.0007,199.9994L 32.0053,199.9959L 28.0267,199.9788L 24.1035,199.9163L 20.3201,199.7382L 16.8123,199.3304L 13.7303,198.5664L 12.4413,197.9732L 10.0674,196.5947L 7.9913,194.9048L 7,194L 5.2041,192.5646L 3.586,190.9215L 2.2105,189.0314L 1,187L 0,187Z" style="fill:rgb(203,203,203);"/>
<path d="M 10,199L 796,199L 796,195L 10,195L 9,196L 9,197Z" style="fill:rgb(203,203,203);"/>
<path d="M 10,212L 10,215L 786,215L 786,212Z" style="fill:rgb(203,203,203);"/>
<path d="M 2,206L 2,216L 2.2505,217.2495L 2.7505,219.7495L 3,221L 5,221L 6.3333,220.9999L 9,221L 10,221L 11.6476,220.6476L 15.0069,220.0069L 18.5264,219.5264L 22.2306,219.2306L 26.0828,219.0828L 30.0236,219.0236L 34.0052,219.0052L 38.0008,219.0008L 42.0001,219.0001L 46,219L 50,219L 774,219L 777.9804,219.0012L 781.8399,219.0169L 785.3801,219.106L 788.4385,219.4085L 791.0097,220.1173L 793.1893,221.3569L 795.0974,223.0578L 796,224L 798,224L 798.5435,221.087L 799.108,218.2161L 799.6988,215.3976L 800,214L 800,212L 799,211L 798,210L 796,209L 44,209L 40,209L 36.0003,208.9998L 34.0017,208.9988L 30.011,208.9923L 26.0497,208.9645L 22.1738,208.8748L 18.4881,208.6471L 15.1375,208.1777L 12.2546,207.3747L 9.8812,206.2132L 7.9094,204.7729L 7,204L 6,204L 5.0059,204.5073L 3.0059,205.5073ZM 50,214.9996L 46,214.9997L 44,214.9997L 42.0003,214.9995L 40.0014,214.9986L 38.0051,214.9951L 36.0169,214.9842L 34.0506,214.9502L 32.1452,214.8618L 30.3904,214.5917L 29.0802,214.0272L 30.266,212.1786L 34.0223,212.0155L 38.0017,212.0013L 42.0001,212.0001L 46,212L 50,212L 746,212L 750,212L 752,212L 753.9997,212.0002L 755.9986,212.0011L 757.9949,212.0046L 759.9831,212.0156L 761.9494,212.0495L 763.8548,212.1377L 765.6096,212.4072L 766.9198,212.9703L 765.734,214.8144L 761.9777,214.977L 757.9983,214.9912L 753.9999,214.9924L 750,214.9926L 746,214.9926Z" style="fill:rgb(205,205,205);"/>
<path d="M 2,201L 1,200L 0,200L 0,209L 0.2058,210.3956L 0.6093,213.1929L 1,216L 2,216Z" style="fill:rgb(207,207,207);"/>
<path d="M 2,216L 2,226L 2.2505,227.2495L 2.7505,229.7495L 3,231L 5,231L 7.1456,229.9625L 9.4865,228.9357L 12.1579,227.9721L 15.2041,227.1644L 18.5928,226.5888L 22.2498,226.2498L 26.0872,226.0872L 30.0244,226.0244L 34.0052,226.0052L 38.0008,226.0008L 42.0001,226.0001L 46,226L 50,226L 756,226L 760,226L 763.9999,226.0001L 767.9991,226.0008L 771.994,226.0056L 775.9704,226.027L 779.8884,226.0998L 783.6629,226.2957L 787.1602,226.7244L 790.2361,227.5007L 792.8192,228.6774L 794.9931,230.1831L 796,231L 798,231L 799,228L 799.2495,226.7495L 799.7495,224.2495L 800,223L 800,214L 799,214L 797.9404,214.7497L 795.6292,216.0971L 792.8517,217.0747L 789.578,217.6583L 786,218L 784.3524,218.1762L 780.9931,218.4966L 777.4736,218.7368L 773.7694,218.8847L 769.9172,218.9586L 765.9764,218.9882L 761.9948,218.9974L 757.9992,218.9996L 753.9999,219L 750,219L 746,219L 44,219L 40,219L 36.0003,218.9998L 34.0017,218.9988L 30.011,218.9923L 26.0497,218.9645L 22.1738,218.8748L 18.4881,218.6471L 15.1375,218.1777L 12.2546,217.3747L 9.8812,216.2132L 7.9094,214.7729L 7,214L 6,214L 5.0059,214.5073L 3.0059,215.5073Z" style="fill:rgb(207,207,207);"/>
<path d="M 800,208L 799,208L 798,209L 798,211L 799,212L 800,212Z" style="fill:rgb(207,207,207);"/>
<path d="M 0,223L 1,226L 2,226L 2,216L 1.7942,214.6044L 1.3907,211.8071L 1,209L 0,209Z" style="fill:rgb(209,209,209);"/>
<path d="M 7,223L 6,223L 5,226L 5,231L 8,232L 756,232L 760,232L 763.9999,232.0001L 767.9992,232.0008L 771.9948,232.0052L 775.9764,232.0236L 779.9172,232.0828L 783.7694,232.2306L 787.4736,232.5264L 790.9931,233.0069L 794.3524,233.6476L 796,234L 798,234L 798.6667,233L 800,231L 800,223L 799,223L 796.7769,224.1125L 794.2295,225.0026L 791.1935,225.5692L 787.7053,225.8527L 783.9173,225.9617L 779.9834,225.9929L 775.9979,225.9992L 771.9999,226L 768,226L 44,226L 40,226L 36.0002,225.9998L 32.0023,225.9977L 28.0138,225.9862L 24.0593,225.9407L 20.1943,225.8057L 16.5071,225.4929L 13.0846,224.9154L 9.9475,224.0525Z" style="fill:rgb(209,209,209);"/>
<path d="M 800,231L 799,231L 798,232L 796.6023,234.4323L 794.968,236.615L 792.905,238.3616L 790.3108,239.5934L 787.1986,240.348L 783.6768,240.7427L 779.892,240.9157L 775.9711,240.9777L 771.994,240.9955L 767.9991,240.9993L 763.9999,240.9999L 760,241L 756,241L 49,241L 45,241L 41.0001,240.9999L 37.0009,240.9991L 33.006,240.994L 29.0297,240.9705L 25.1125,240.8889L 21.343,240.6645L 17.8686,240.1623L 14.8703,239.226L 12.4943,237.7436L 10.7639,235.7168L 9.5264,233.2882L 9,232L 8,231L 7.0238,230.279L 5.2143,228.7246L 4.4524,227.8351L 3.7321,226.9039L 2.3393,224.9864L 1,223L 0,223L 0,290L 800,290Z" style="fill:rgb(212,212,212);"/>
<path d="M 15,71L 12,71L 9,72L 7,73L 7,74L 10,74L 13,73L 15,72Z" style="fill:rgb(235,235,235);"/>
<path d="M 26,67L 23,67L 20,68L 17,69L 15,70L 15,71L 18,71L 21,70L 24,69L 26,68Z" style="fill:rgb(235,235,235);"/>
<path d="M 72,52L 68,52L 65,53L 62,54L 62,55L 66,55L 69,54L 72,53Z" style="fill:rgb(235,235,235);"/>
<path d="M 105,43L 105,44L 109,44L 110,43L 111,42L 111,41L 107,41Z" style="fill:rgb(235,235,235);"/>
<path d="M 143,36L 143,33L 139,33L 139,35L 140,36Z" style="fill:rgb(235,235,235);"/>
<path d="M 221,20L 223.499,18.999L 226,18L 226,17L 220,17L 220,20Z" style="fill:rgb(235,235,235);"/>
<path d="M 300,8L 291,8L 291,9L 300,9Z" style="fill:rgb(235,235,235);"/>
<path d="M 312,7L 301,7L 301,8L 312,8Z" style="fill:rgb(235,235,235);"/>
<path d="M 327,6L 315,6L 315,7L 327,7Z" style="fill:rgb(235,235,235);"/>
<path d="M 344,5L 330,5L 330,6L 344,6Z" style="fill:rgb(235,235,235);"/>
<path d="M 366,4L 347,4L 347,5L 366,5Z" style="fill:rgb(235,235,235);"/>
<path d="M 422,3L 378,3L 378,4L 422,4Z" style="fill:rgb(235,235,235);"/>
<path d="M 451,4L 433,4L 433,5L 451,5Z" style="fill:rgb(235,235,235);"/>
<path d="M 472,5L 456,5L 456,6L 472,6Z" style="fill:rgb(235,235,235);"/>
<path d="M 486,6L 475,6L 475,7L 486,7Z" style="fill:rgb(235,235,235);"/>
<path d="M 499,7L 489,7L 489,8L 499,8Z" style="fill:rgb(235,235,235);"/>
<path d="M 510,8L 501,8L 501,9L 510,9Z" style="fill:rgb(235,235,235);"/>
<path d="M 547,12L 538,12L 538,13L 547,13Z" style="fill:rgb(235,235,235);"/>
<path d="M 596,23L 598,21.6667L 599,21L 599,20L 594,20L 594,22L 595,23Z" style="fill:rgb(235,235,235);"/>
<path d="M 654,31L 651.3333,30.3333L 650,30L 645,30L 645,31L 647.6667,31.6667L 649,32L 654,32Z" style="fill:rgb(235,235,235);"/>
<path d="M 800,76L 800,0L 0,0L 0,77L 2,77L 5,76L 7,75L 8.3115,74.3217L 10.9402,72.9988L 13.5813,71.7647L 16.24,70.6464L 18.9354,69.6494L 21.6968,68.7734L 24.5344,68.0193L 27.4191,67.384L 30.3038,66.8544L 33.1623,66.4051L 36,66L 37.3406,65.3318L 38.6931,64.6776L 41.4292,63.4049L 42.8318,62.8075L 45.6729,61.6516L 48.5784,60.5639L 51.5305,59.5227L 54.51,58.5066L 57.5027,57.5015L 60.5005,56.5002L 62,56L 64.424,54.9365L 66.9174,53.9719L 69.52,53.1697L 72.2282,52.533L 75,52L 76.3333,51.6667L 79,51L 81.8748,50.1158L 84.7205,49.2649L 87.5198,48.4664L 90.2737,47.7181L 93,47L 95.7811,46.2122L 98.544,45.4469L 101.2811,44.7126L 104,44L 106.8771,43.0889L 109.7008,42.2396L 112.4443,41.4901L 115.1076,40.8436L 117.7102,40.2721L 119,40L 121.7472,39.2382L 124.4561,38.5204L 127.1072,37.8709L 129.7088,37.2822L 131,37L 132.3459,36.6458L 135.025,35.9583L 137.6792,35.3125L 139,35L 142.0994,34.2087L 145.1129,33.4781L 147.9733,32.8366L 150.6796,32.2694L 152,32L 153.2952,31.699L 154.5865,31.4038L 157.1586,30.8274L 159.7078,30.2797L 162.2345,29.7572L 164.7464,29.2507L 166,29L 168.6069,28.3966L 171.2328,27.8158L 173.9132,27.268L 176.6851,26.7491L 179.5487,26.2478L 181,26L 182.2495,25.7495L 184.7495,25.2495L 186,25L 187.2495,24.7495L 189.7591,24.2482L 192.3111,23.7452L 194.9474,23.2415L 197.6969,22.7415L 200.5602,22.2452L 203.5081,21.7482L 206.499,21.2495L 208,21L 209.2773,20.7532L 211.8581,20.2699L 214.5053,19.8146L 217.228,19.3947L 220,19L 221.6433,18.6433L 224.9833,17.9833L 228.4436,17.4436L 232,17L 233.3956,16.7942L 236.1929,16.3907L 239,16L 240.3956,15.7942L 241.7942,15.5924L 244.6407,15.1913L 247.6327,14.7902L 250.7813,14.3907L 254,14L 255.5885,13.7942L 258.7813,13.3907L 262,13L 263.5885,12.7942L 266.7813,12.3907L 270,12L 271.4875,11.8146L 274.475,11.4625L 277.4875,11.1479L 279,11L 280.4875,10.8146L 283.475,10.4625L 286.4875,10.1479L 288,10L 289.5405,9.6774L 292.6702,9.0748L 295.9193,8.5748L 299.2895,8.1774L 301,8L 302.6469,7.8234L 306.0017,7.5009L 309.5027,7.2514L 313.1479,7.0739L 315,7L 316.6198,6.8238L 319.8886,6.503L 323.2195,6.2606L 326.5998,6.1035L 330,6L 331.6365,5.8238L 334.9496,5.5034L 338.346,5.2628L 341.8015,5.1127L 345.2686,5.0296L 347,5L 348.6476,4.8238L 352.0069,4.5034L 355.5264,4.2632L 359.2306,4.1153L 363.0828,4.0414L 367.008,4.0118L 370.8802,4.0026L 374.5477,4.0004L 378,4L 379.6476,3.8238L 383.0069,3.5034L 386.5263,3.2632L 390.2306,3.1154L 394.082,3.0418L 398.0185,3.0144L 401.9815,3.0144L 405.918,3.0418L 409.7694,3.1154L 413.4737,3.2632L 416.9931,3.5034L 420.3524,3.8238L 422,4L 423.7258,4.0004L 427.2839,4.0026L 431.0467,4.0118L 434.925,4.0414L 438.7694,4.1153L 442.4736,4.2632L 445.9931,4.5034L 449.3524,4.8238L 451,5L 452.7559,5.0092L 456.3057,5.041L 459.9154,5.1153L 463.5122,5.2632L 466.9995,5.5034L 470.3529,5.8238L 472,6L 473.8521,6.0739L 477.4973,6.2514L 480.9983,6.5009L 484.3531,6.8234L 486,7L 487.6557,7.0739L 490.9513,7.2514L 494.2042,7.5009L 497.4087,7.8234L 499,8L 500.5983,8.1303L 503.776,8.4336L 506.9042,8.8455L 509.9726,9.3818L 513,10L 516.2187,10.3907L 519.4115,10.7942L 521,11L 522.5125,11.1479L 525.525,11.4625L 528.5125,11.8146L 530,12L 531.7314,12.0591L 535.1985,12.2255L 538.654,12.5255L 542.0504,13.0068L 545.3635,13.6476L 547,14L 548.6093,14.1953L 551.7934,14.59L 554.865,14.9886L 557.7854,15.3882L 560.6044,15.7942L 562,16L 564.8071,16.3907L 567.6044,16.7942L 569,17L 571.772,17.3947L 574.4947,17.8146L 577.1419,18.2699L 579.7227,18.7532L 581,19L 583.8071,19.3907L 586.6044,19.7942L 588,20L 591.1831,20.4436L 594.3362,20.9833L 597.4512,21.6433L 599,22L 600.4489,22.2465L 603.3031,22.7415L 606.0526,23.2415L 608.6984,23.7465L 610,24L 611.4489,24.2465L 614.3031,24.7415L 615.6779,24.9915L 617.0244,25.2423L 619.6681,25.7447L 620.9495,25.996L 623.523,26.5054L 626.1973,27.0462L 629.0522,27.6457L 632.0188,28.3052L 635,29L 636.2505,29.2495L 638.7505,29.7495L 640,30L 643.3546,30.4262L 646.5937,30.9637L 649.6584,31.6738L 652.5724,32.5376L 654,33L 656.6667,33.6667L 658,34L 660.6667,34.6667L 662,35L 664.6667,35.6667L 666,36L 668.5634,36.5491L 671.1528,37.1305L 673.7894,37.7667L 676.4827,38.4649L 679.2265,39.2168L 682,40L 683.295,40.286L 685.9025,40.8801L 688.555,41.5302L 689.9075,41.8871L 692.6358,42.625L 695.4044,43.4L 698.1978,44.1953L 701,45L 702.3986,45.3971L 705.1978,46.1953L 708,47L 709.3986,47.3971L 710.7982,47.7962L 712.1998,48.1973L 715.0095,49.005L 717.8363,49.8287L 720.6867,50.6784L 723.5591,51.5554L 725,52L 727.835,52.8283L 730.6867,53.6784L 733.5591,54.5554L 735,55L 737.8512,55.845L 739.2866,56.2786L 742.1732,57.1635L 743.633,57.6239L 746.5682,58.561L 749.5306,59.5261L 752.5114,60.5096L 755.5013,61.503L 758.4892,62.5008L 761.4588,63.5002L 764.3847,64.5L 767.2368,65.5L 769.9966,66.5L 772.6762,67.5L 774,68L 775.2138,68.4L 777.6714,69.2186L 780.2201,70.089L 782.8743,71.0233L 785.5538,72.0029L 788.1486,73L 790.6169,74L 793,75L 796,76Z" style="fill:rgb(254,254,254);"/>
<path d="M 5,231L 4,231L 3,232L 3,241L 5,241Z" style="fill:rgb(211,211,211);"/>
<path d="M 9,232L 9,241L 796,241L 797,238L 798,235L 798,234L 796,232Z" style="fill:rgb(211,211,211);"/>
</svg>