<?xml version="1.0" standalone="no"?><!DOCTYPE svg PUBLIC "-//W3C//DTD SVG 1.1//EN" "http://www.w3.org/Graphics/SVG/1.1/DTD/svg11.dtd"><svg t="1733803443045" class="icon" viewBox="0 0 2399 1024" version="1.1" xmlns="http://www.w3.org/2000/svg" p-id="22531" data-spm-anchor-id="a313x.search_index.0.i19.3d8c3a81kwz9X0" xmlns:xlink="http://www.w3.org/1999/xlink" width="468.5546875" height="200"><path d="M0 0m174.236499 0l1260.652318 0q174.236499 0 174.236499 174.236499l0 338.223793q0 174.236499-174.236499 174.236499l-1260.652318 0q-174.236499 0-174.236499-174.236499l0-338.223793q0-174.236499 174.236499-174.236499Z" fill="#ffffff" p-id="22532" data-spm-anchor-id="a313x.search_index.0.i17.3d8c3a81kwz9X0" class=""></path><path d="M784.064247 220.357925a30.747618 30.747618 0 0 1 30.696371 28.943758l0.051246 1.80386V440.715851a30.747618 30.747618 0 0 1-61.443989 1.80386L753.316629 440.715851V251.105543a30.747618 30.747618 0 0 1 30.747618-30.747618zM1194.03248 253.052892a30.747618 30.747618 0 0 1 30.696371 28.943757l0.051246 1.81411v122.99047a30.747618 30.747618 0 0 1-61.443989 1.80386l-0.051246-1.80386v-122.99047a30.747618 30.747618 0 0 1 30.747618-30.747618zM579.08013 262.205433a30.747618 30.747618 0 0 1 30.696371 28.943757l0.051246 1.80386v107.616662a30.747618 30.747618 0 0 1-61.443989 1.80386l-0.051246-1.80386v-107.616662a30.747618 30.747618 0 0 1 30.747618-30.747617zM374.096013 253.052892a30.747618 30.747618 0 0 1 30.696372 28.943757l0.051246 1.81411v122.99047a30.747618 30.747618 0 0 1-61.443989 1.80386l-0.051246-1.80386v-122.99047a30.747618 30.747618 0 0 1 30.747617-30.747618zM1399.016597 286.977763a30.747618 30.747618 0 0 1 30.696371 28.943758l0.051246 1.80386v57.221316a30.747618 30.747618 0 0 1-61.443989 1.80386l-0.051246-1.80386V317.725381a30.747618 30.747618 0 0 1 30.747618-30.747618zM989.048363 262.205433a30.747618 30.747618 0 0 1 30.696372 28.943757l0.051246 1.80386v107.616662a30.747618 30.747618 0 0 1-61.443989 1.80386l-0.051246-1.80386v-107.616662a30.747618 30.747618 0 0 1 30.747617-30.747617zM215.233323 302.351572a30.747618 30.747618 0 0 1 30.696371 28.943757L245.98094 333.09919v28.605533a30.747618 30.747618 0 0 1-61.443989 1.81411L184.485705 361.694474V333.09919a30.747618 30.747618 0 0 1 30.747618-30.747618z" fill="#1afa29" p-id="22533" data-spm-anchor-id="a313x.search_index.0.i16.3d8c3a81kwz9X0" class="selected"></path></svg>